<?xml version="1.0" standalone="no"?>
<!DOCTYPE svg PUBLIC "-//W3C//DTD SVG 1.1//EN" "http://www.w3.org/Graphics/SVG/1.1/DTD/svg11.dtd">
<svg xmlns="http://www.w3.org/2000/svg">
<defs>
<font id="icofont" horiz-adv-x="1000" >
<font-face font-family="IcoFont" font-weight="400" font-style="Regular" units-per-em="1000" ascent="850" descent="-150" />
<missing-glyph horiz-adv-x="1000" />
<glyph glyph-name="500px" horiz-adv-x="1000" unicode="&#xed1c;" d="M544 13c160 0 290 131 290 291s-130 290-291 290c-80 0-154-32-209-88v233h400c14 0 25 11 25 24s-11 24-25 24h-424c-14 0-25-9-25-22v-327l0-6c-1-12 7-22 18-25 11-3 23 2 28 12 43 78 124 126 213 126 133 0 241-108 241-241s-109-242-242-242c-44 0-87 13-124 35v207c0 68 56 124 124 124s124-56 124-124c0-69-55-124-124-124-16 0-32 3-47 9-13 6-27 0-32-13-6-12 0-27 13-32 21-9 43-13 67-13 95 0 173 77 173 173s-78 173-173 173-173-78-173-173v-168c-29 28-49 63-60 104-4 13-17 20-30 17-13-4-21-17-18-30 35-126 150-214 281-214z m-148 652c-13-6-18-20-13-33s20-18 33-12c77 34 228 70 376-75 5-5 11-7 18-7 6 0 12 2 17 7 10 10 10 25 0 35-175 172-360 116-431 85z m440-583c-11 9-26 7-35-3-65-74-159-117-257-117-174 0-319 130-339 301-1 14-14 24-27 22-14-1-23-14-22-27 23-197 189-345 388-345 113 0 220 48 294 134 9 10 8 26-2 35z m-355 162c5-5 11-7 18-7 6 0 12 2 17 7l25 25 25-25c5-5 11-8 17-8 7 0 13 3 18 7 9 10 10 25 0 35l-25 25 24 24c10 10 10 25 1 35-10 10-26 10-35 0l-25-24-24 25c-9 9-25 9-34 0-10-10-10-25-1-35l24-24-25-25c-9-10-10-25 0-35z" />
<glyph glyph-name="aim" horiz-adv-x="1000" unicode="&#xed1d;" d="M602 226c90-44 186-125 225-219-50-40-57-45-115-95-57 109-125 169-218 193-55-71-144-154-283-192-31 66-40 85-61 134 112 26 152 62 207 166-4 127 29 252 110 302 42-14 112-56 132-62-3-13 7-28 41-35 26-6 87-15 146 38 36-55 64-109 64-109s-112-111-246-76c-1-17-1-23-2-45z m16 313c-69 0-125 55-125 124-1 69 56 125 125 125s125-56 125-125c0-69-57-124-125-124z" />
<glyph glyph-name="badoo" horiz-adv-x="1000" unicode="&#xed1e;" d="M249 520c50 44 102 74 162 89 240 61 466-130 446-376-15-175-171-317-348-320-171-4-324 114-358 277-5 23-8 46-8 69-1 152-1 305-1 458 0 4 0 8 0 12 2 34 26 59 55 58 28 0 51-25 52-58 0-59 0-118 0-176l0-33z m251-508c143 0 257 114 257 255 0 129-101 253-258 254-142 1-256-115-257-254 0-141 115-255 258-255z m-131 335c42-1 72-31 72-72 0-42-32-74-73-74-42 0-73 32-73 74 0 43 31 72 74 72z" />
<glyph glyph-name="baidu-tieba" horiz-adv-x="1000" unicode="&#xed1f;" d="M397 517c52 0 95 61 95 135 0 75-43 136-95 136s-95-61-95-136 42-135 95-135z m-177-191c95 21 82 135 79 159-4 39-49 106-111 100-77-6-88-118-88-118-10-51 25-161 120-141z m403 182c70-9 115 66 124 123 9 57-36 122-86 134-50 11-112-69-117-121-7-63 9-127 79-136z m278-95c0 27-22 109-106 109-84 0-95-77-95-132 0-52 4-125 108-122 105 2 93 117 93 145z m-106-239s-109 84-172 175c-86 134-208 80-249 11-41-68-104-111-113-122-9-11-131-77-104-198 27-120 122-118 122-118s70-7 152 11c81 19 151-4 151-4s190-64 242 59c52 123-29 186-29 186z m-326-182h-123c-54 10-75 47-78 53-2 7-17 36-9 86 23 75 88 80 88 80h66v81l56-1v-299z m88 1c-55 14-57 53-57 53v157l57 1v-141c4-15 23-18 23-18h58v158h62v-210h-143z m-236 136c-3-8-9-29-4-46 11-40 46-42 46-42h49v121h-53c-24-7-35-26-38-33z" />
<glyph glyph-name="bbm-messenger" horiz-adv-x="1000" unicode="&#xed20;" d="M500 788c-242 0-437-196-437-438s195-438 437-438 438 196 438 438-196 438-438 438z m-210-497h-84l23 106h80c52 0 65-26 65-46 0-29-19-60-84-60z m28 159h-83l22 106h81c52 0 65-26 65-46 0-29-19-60-85-60z m165-325h-84l23 106h80c52 0 65-26 65-46 0-29-19-60-84-60z m31 166h-84l23 106h80c52 0 65-26 65-46 0-29-19-60-84-60z m29 159h-84l23 106h80c52 0 65-26 65-46 0-29-19-60-84-60z m164-245h-84l23 106h80c52 0 65-26 65-47 0-28-19-59-84-59z m31 150h-84l23 106h80c53 0 65-26 65-46 0-29-19-60-84-60z" />
<glyph glyph-name="bebo" horiz-adv-x="1000" unicode="&#xed21;" d="M544-88h-88c-193 0-350 158-350 351v437c0 48 39 88 88 88 48 0 87-40 87-88v-437c0-97 79-175 175-175h88c96 0 175 68 175 153 0 86-47 153-88 153h-175c-48 0-87 39-87 87 0 49 39 88 87 88h175c145 0 263-147 263-328 0-181-157-329-350-329z" />
<glyph glyph-name="behance" horiz-adv-x="1000" unicode="&#xed22;" d="M853 545h-220v55h220v-55z m-365-223c14-22 21-49 21-80 0-32-8-61-24-87-11-17-24-31-39-43-17-13-38-22-61-27-24-5-50-7-77-7h-245v544h262c67-1 114-20 141-58 17-23 25-51 25-83 0-33-8-60-25-80-9-11-23-22-41-31 27-10 49-26 63-48z m-300 86h115c24 0 43 4 58 13 15 9 22 25 22 48 0 25-10 42-29 50-17 6-38 9-64 9h-102v-120z m206-158c0 28-12 48-35 58-12 6-31 9-54 9h-117v-145h115c24 0 42 3 55 10 24 12 36 34 36 68z m540 88c3-17 4-43 3-77h-283c1-39 15-67 40-82 16-10 35-15 57-15 23 0 42 6 56 18 8 6 15 15 21 27h104c-3-23-15-47-38-71-35-38-84-57-146-57-52 0-98 16-138 48-39 32-59 84-59 156 0 68 17 120 53 156 36 36 83 54 140 54 34 0 64-6 92-18 27-12 49-32 67-58 16-23 26-50 31-81z m-102-10c-2 27-11 48-28 62-16 14-36 21-60 21-26 0-46-8-61-22-14-15-23-35-27-61h176v0z" />
<glyph glyph-name="blogger" horiz-adv-x="1000" unicode="&#xed23;" d="M658-88c153 0 277 125 278 277l1 223-2 12-7 15-13 10c-16 13-98-1-119 19-16 14-18 40-23 75-9 67-14 71-25 94-38 81-143 142-214 151h-194c-153 0-277-125-277-277v-322c0-152 124-277 277-277h318z m-315 650h154c30 0 53-24 53-53 0-29-24-53-53-53h-154c-29 0-53 24-53 53 0 29 24 53 53 53z m-53-369c0 29 24 52 53 52h313c29 0 53-23 53-52 0-29-24-53-53-53h-313c-29 0-53 24-53 53z" />
<glyph glyph-name="bootstrap" horiz-adv-x="1000" unicode="&#xed24;" d="M556 466c0 16-11 53-63 53h-79v-109h78c58 0 64 38 64 56z m-53-154h-89v-140h90c74 0 78 52 78 70 0 17-6 70-79 70z m317 476h-640c-65 0-117-53-117-118v-640c0-65 52-118 117-118h640c65 0 118 53 118 118v640c0 65-53 118-118 118z m-285-712h-262v548h255c145 0 176-103 176-143 0-82-46-103-69-113 35-10 92-40 92-144 0-30-4-148-192-148z" />
<glyph glyph-name="brightkite" horiz-adv-x="1000" unicode="&#xed25;" d="M615 405c0-9 6-50-12-81-18-31-74-13-74-13v159s10 20 52 15c43-5 34-70 34-80z m293 383v-551c0-20-13-41-38-52-56-26-779-273-779-273l161 824s13 52 82 52h574z m-211-276c-35 98-160 54-162 21l-6 2v162l-107-16v-410s63-59 165-43c103 17 118 103 118 103s28 84-8 181z" />
<glyph glyph-name="cloudapp" horiz-adv-x="1000" unicode="&#xed26;" d="M248 35l0-1h5c2 0 4 0 7 0 2 0 4 0 7 0l438 0c3 0 6 0 10 0 123 0 222 100 222 224s-99 225-222 225c-5 0-9 0-14-1-19 105-109 184-218 184-123 0-223-101-223-225 0-3 0-6 0-9h0c-109 0-197-89-197-199 0-106 82-192 185-198z" />
<glyph glyph-name="concrete5" horiz-adv-x="1000" unicode="&#xed27;" d="M855 788h-710c-45 0-82-38-82-83v-710c0-45 37-83 82-83h710c45 0 83 38 83 83v710c0 45-38 83-83 83z m-253-357s24 169 51 182c0 0 42 28 42-45 0 0-12-118-49-191 0 0-32-63-48 0 0 0 0 42 4 54z m-70 252s29-7 24-76c0 0-1-177-18-205 0 0-25-57-46 21 0 0-8 38-7 202 0 0-2 74 47 58z m-162-45s23-2 33-63c0 0 19-93 24-131 0 0 7-66-16-77 0 0-22-15-48 65 0 0-22 93-28 145 0 0-6 66 35 61z m-156-167s-13 46 20 55c0 0 24 7 36-22 0 0 40-144 44-163 0 0 6-50-15-28 0 0-16 6-53 81 0 0-24 46-32 77z m521-302s-58-65-103-105c0 0-79-82-227-35 0 0-104 24-134 129 0 0-32 124 134 182 0 0 104 26 184-3 0 0 75-26 32-75 0 0-20-31-90-15 0 0-73 19-99-4 0 0-52-37-25-96 0 0 47-65 146-27 0 0 30 16 43 35 0 0 73 77 85 85 0 0 45 39 79 30 0 0 28-7 28-27 1 0-3-20-53-74z" />
<glyph glyph-name="delicious" horiz-adv-x="1000" unicode="&#xed28;" d="M63 788v-876h875v876h-875z m437-872v434h-434v434h434v-434h434v-434h-434z" />
<glyph glyph-name="designbump" horiz-adv-x="1000" unicode="&#xed29;" d="M644 262l-33-29v311h153l-264 244-264-244h151v-77l-31 23-192-179h97v-399h175v399h108l-127 123v149h-107l190 175 189-175h-107v-383l-126-112h107v-176h175v176h97l-191 174z" />
<glyph glyph-name="designfloat" horiz-adv-x="1000" unicode="&#xed2a;" d="M562 569v85c117-26 201-107 228-233h-85c-23 78-75 126-143 148z m-126 0v85c-136-26-208-107-235-233h86c22 78 81 126 149 148z m-149-265h-86c27-146 99-213 235-240v85c-68 22-127 87-149 155z m595 55c0-215-173-389-386-389s-387 174-387 389c0 215 173 388 387 388s386-174 386-388z m-38 0c0 193-156 349-348 349s-349-156-349-349c0-193 156-350 349-350 192 1 348 157 348 350z m-348-177c-98 0-177 79-177 177 0 98 79 177 177 177 97 0 176-79 176-177 0-98-79-177-176-177z m137 177c0 76-62 138-137 138-76 0-138-62-138-138 0-76 62-138 138-138 75 0 137 62 137 138z m-71-210v-85c117 26 201 94 228 240h-85c-23-68-75-133-143-155z m333-17c-24 0-43-19-43-43s19-43 43-43 43 20 43 43-20 43-43 43z m-104-109c-30 0-55-25-55-56 0-30 25-55 55-55 30 0 55 25 55 55 0 31-25 56-55 56z m90 249c-14 0-25-11-25-25s11-25 25-25 25 11 25 25-11 25-25 25z m-758-291c-15 0-28-12-28-28 0-15 13-27 28-27s27 12 27 27c0 16-12 28-27 28z m-9 145c-14 0-26-11-26-26 0-15 12-26 26-26s27 11 27 26c-1 15-12 26-27 26z m86-66c-19 0-35-16-35-36 0-19 16-35 35-35 20 0 35 16 35 35 0 20-15 36-35 36z m695 536c-10 0-18-8-18-19 0-10 8-18 18-18 10 0 18 8 18 18 0 11-8 19-18 19z m-801 77c-18 0-31-14-31-31 0-17 13-31 31-31s31 14 31 31c-1 17-14 31-31 31z m71 115c-22 0-39-18-39-40s17-39 39-39 38 18 38 39-17 40-38 40z m-61-243c-11 0-20-8-20-19s9-20 20-20 19 9 19 20c0 11-9 19-19 19z" />
<glyph glyph-name="deviantart" horiz-adv-x="1000" unicode="&#xed2b;" d="M771 788h-159l-16-16-75-143-24-16h-268v-218h147l13-16-160-307v-160h159l16 16 75 143 24 16h268v219h-148l-12 15 160 307z" />
<glyph glyph-name="digg" horiz-adv-x="1000" unicode="&#xed2c;" d="M218 661v-155h-155v-312h243v467h-88z m-68-389v156h68v-156h-68z m175 234h88v-312h-88v312z m0 155h88v-87h-88v87z m360-155h-234v-312h146v-68h-146v-87h234v467z m-146-234v156h58v-156h-58z m399 234h-234v-312h156v-68h-156v-87h234v467z m-78-234h-68v156h68v-156z" />
<glyph glyph-name="dotcms" horiz-adv-x="1000" unicode="&#xed2d;" d="M500 582l202 206s169-24 236-230l-212-208s-21 178-226 232z m202-670s40 197 236 233l-212 205s-180-28-226-229l202-209z m-639 238l203 203s190-22 232-232l-201-209s-32 192-234 238z m204 205s35 181 230 227l-203 206s-189-33-231-234l204-199z" />
<glyph glyph-name="dribbble" horiz-adv-x="1000" unicode="&#xed2e;" d="M879 570c-39 67-92 120-159 159-67 39-141 58-220 58s-152-19-219-58-121-92-160-159c-39-68-58-141-58-220s19-153 58-220 92-120 159-159c68-39 141-59 220-59s153 20 220 59 120 92 159 159c39 67 58 141 58 220s-19 152-58 220z m-379 145c88 0 165-28 233-84-40-51-100-94-179-127-44 79-92 145-143 199 30 8 59 12 89 12z m-284-138c33 42 73 74 119 98 53-53 102-119 146-197-88-27-180-40-277-40-26 0-44 1-57 2 13 50 36 96 69 137z m-81-227c0 2 0 5 1 9 0 3 0 6 0 9 11-1 28-1 51-1 117 0 225 16 325 48 9-17 17-35 26-55-58-13-117-44-178-94-61-50-105-102-133-157-61 70-92 150-92 241z m365-365c-83 0-157 26-223 77 26 52 67 102 121 149 55 47 109 77 163 88 33-93 56-190 68-289-43-17-86-25-129-25z m310 173c-29-46-67-85-113-114-10 91-31 179-60 266 40 3 77 4 109 4 35 0 74-1 116-4-5-55-23-105-52-152z m-54 219c-51 0-98-2-141-6-11 29-21 52-30 71 90 40 155 88 192 144 53-62 82-132 86-212-35 2-71 3-107 3z" />
<glyph glyph-name="dribble" horiz-adv-x="1000" unicode="&#xed2f;" d="M500 788c-242 0-437-196-437-438s195-438 437-438c242 0 438 196 438 438s-196 438-438 438z m268-227c43-54 70-122 73-195-49 11-96 16-140 16h0c-35 0-68-3-99-9-7 19-15 36-23 53 69 30 135 74 189 135z m-268 130c81 0 154-28 213-75-45-53-104-92-168-119-45 86-88 148-118 186 24 5 48 8 73 8z m-151-35c24-28 71-90 122-186-103-31-207-38-270-38h-5c-11 0-20 0-27 1 24 98 92 179 180 223z m-190-306c0 2 0 3 0 5 10 0 22-1 37-1h0c69 1 189 6 310 45 7-15 13-30 20-45-81-28-145-71-192-114-46-41-76-82-94-110-51 60-81 136-81 220z m341-341c-76 0-146 25-203 67 12 20 38 58 79 97 43 41 101 83 178 108 26-73 49-156 67-250-38-14-78-22-121-22z m193 60c-17 85-39 161-63 230 22 3 46 5 70 5h1c41 0 86-5 134-16-17-91-69-168-142-219z" />
<glyph glyph-name="dropbox" horiz-adv-x="1000" unicode="&#xed30;" d="M772 443l-261 159 165 137 262-161-166-135z m-98-301l251 147-151 128-246-149 146-126z m-202 126l-246 149-151-128 251-147 146 126z m-234-105v-48l252-154v293l-167-137-85 46z m524 0l-85-46-166 137v-293l251 154v48h0z m-272 439l-166 137-261-161 165-135 262 159z" />
<glyph glyph-name="ebuddy" horiz-adv-x="1000" unicode="&#xed31;" d="M178 543c7 3 12 6 18 7 21 5 43 13 65 13 159 1 319 1 479 1 87-1 166-66 184-151 4-15 5-31 5-47 1-66 1-132 0-197 0-33 2-67-3-99-17-92-96-157-190-157-156-1-313-1-470 0-101 0-181 73-193 173-2 16-3 32-3 48 1 199 2 398 3 598 0 31 21 55 50 56 29 1 54-25 55-57 0-56 0-113 0-169v-19z m324-84c-77 0-153 0-230 0-56 0-95-38-95-94 0-84 1-167 0-250-1-52 34-98 98-98 151 0 301 0 452 0 60 0 98 38 98 99l-1 243c0 63-36 100-99 100l-223 0z m238-221c0-43-37-80-80-80-43 0-80 37-80 80 0 44 37 80 80 80 44 0 80-36 80-80z m-474 1c0 42 37 79 79 79 43 1 81-37 81-80-1-42-37-79-80-79-42-1-80 37-80 80z" />
<glyph glyph-name="ello" horiz-adv-x="1000" unicode="&#xed32;" d="M501 788h-2c-242-1-436-196-436-440 0-239 197-436 437-436 240 0 437 197 437 436 0 244-194 439-436 440z m246-525c-37-106-138-177-247-176-109-1-210 70-247 176-11 31-9 47 10 51 28 8 31-15 37-33 31-86 111-143 200-143 89 0 169 57 200 143 6 19 9 41 37 33 19-4 21-20 10-51z" />
<glyph glyph-name="ember" horiz-adv-x="1000" unicode="&#xed33;" d="M857 486c-13-47-63-71-63-71-115 291-264 373-264 373-7-94-119-167-119-167l-79 41c13-66-27-128-27-128-163-106-100-324-100-324l-69 32c51-373 366-328 366-328 448 3 355 572 355 572z m-367-502c-269 2-214 344-214 344 8-29 38-43 38-43 69 175 159 223 159 223 4-55 71-100 71-100l47 25c-7-40 17-77 17-77 97-63 60-194 60-194l41 19c-31-224-219-197-219-197z" />
<glyph glyph-name="envato" horiz-adv-x="1000" unicode="&#xed34;" d="M169 77l268 591c-310-126-395-325-268-591z m563 646c-203-218-378-453-502-716 13-15 28-29 45-40 110-76 302-76 425 22 136 116 179 372 186 682 1 25 1 50 1 76-3 65-102 48-155-24z" />
<glyph glyph-name="evernote" horiz-adv-x="1000" unicode="&#xed35;" d="M304 599l-142 0 177 179v-144l-35-35z m502 71c-15 26-94 56-135 56h-106s-34 61-114 61-74-35-74-66v-122l-37-39h-167s-47-31-47-98 21-302 161-324c166-26 195 51 195 61 0 39 1 98 1 98s48-93 122-93 116-42 116-86v-80s-3-50-46-50h-92s-30 23-30 56c0 32 14 41 32 41l31-2v69s-139 1-139-106 73-134 131-134h95s171 22 171 361c1 339-53 371-68 397z m-171-304s9 56 41 56c33 0 77-74 77-74s-102 18-118 18z" />
<glyph glyph-name="facebook-messenger" horiz-adv-x="1000" unicode="&#xed36;" d="M500 788c-240 0-435-182-435-406 0-127 63-241 162-315v-155l148 82c40-11 82-17 125-17 240 0 435 182 435 405s-195 406-435 406z m43-546l-110 119-217-119 238 254 114-119 213 119-238-254z" />
<glyph glyph-name="facebook" horiz-adv-x="1000" unicode="&#xed37;" d="M703 504h-138v91c0 34 22 42 38 42h98v150l-135 1c-149 0-183-112-183-184v-100h-86v-154h86v-437h182v437h122l16 154z" />
<glyph glyph-name="feedburner" horiz-adv-x="1000" unicode="&#xed38;" d="M781 213c2 13 4 26 4 39 1 164-89 228-183 283 27-144-62-233-172-202 161 264-73 264-2 455-110-79-220-298-220-457 0-43 5-82 12-118-79-31-129-76-129-126 0-96 184-174 409-174 225 0 408 78 408 174 0 49-49 94-127 126z m-438 209c-30-138 52-240 130-241 89-1 142 82 167 191 47-36 71-86 74-138l0 1c3-58-20-118-69-159-1 0-1 0-1-1-11-8-22-16-35-23l-4-2c-5-3-10-5-16-8-2 0-3-1-5-2-13-5-28-9-43-13l-7-1c-6-1-12-2-18-3l-7-1c-9 0-17-1-26-1-6 0-12 0-18 0l-5 1c-5 0-10 1-15 2l-3 0c-6 1-12 3-18 4-1 0-1 0-2 1-6 1-11 3-17 5l-1 1c-73 28-126 99-123 198-1 0-1 0-1 0 2 55 21 119 63 189z" />
<glyph glyph-name="flikr" horiz-adv-x="1000" unicode="&#xed39;" d="M451 350c0-107-87-194-194-194s-194 87-194 194 86 194 194 194 194-87 194-194z m487 0c0-107-87-194-195-194s-194 87-194 194 87 194 195 194 194-87 194-194z" />
<glyph glyph-name="folkd" horiz-adv-x="1000" unicode="&#xed3a;" d="M624 531c-6-6-20-4-31-4-4-10-4-23-9-31 19-15 58-12 75-30 37 14 8 42 31 65 35 4 43-18 53-39-8-8-29-3-44-4-8-7-11-19-18-27 8-18 30-22 35-43 46 12 93 22 142 30 13 14 10 43 31 48 34-6 45-36 48-74-18-32-65-18-79 9-46-7-90-16-133-26-3-10 3-39-4-56 29-20 40 15 66 13 15-16 16-75-18-70-18 2-21 20-22 39-13-3-16 5-26 5-20-12-31-34-53-44 3-38 46-12 66-30-2-32-25-42-57-44-2 26 6 47-22 61-30-4-43-24-71-30-1-14 5-21 9-31 7-5 36 7 44-8 0-34-46-57-71-39-2 19 12 23 18 34-9 9-13 23-18 35-27-11-52-24-88-26 0-10-8-13-5-26-1-16 22-8 22-22 8-39-55-45-66-17-1 27 32 20 22 56-22 9-60 2-79 13-12-4-12-20-22-26 2-12 15-13 13-30-29-11-72-2-66 35 16 19 46 2 57 30-17 20-36 39-44 69-67-14-120-41-181-60-6-15-7-35-18-44-19-4-20-1-40 0-17 27-8 85 27 87 19 4 12-16 26-17 63 15 118 37 181 52-13 77 100 132-26 122-13 38 11 67 35 65 40-4 9-54 40-70 28 16 48 40 84 48 3 14-3 20-4 30-3 11-28 0-31 9v31c14 13 52 11 61-5 4-19-7-24-22-26 2-13 10-19 14-30 28 11 70 8 110 9 6 5 8 15 9 26 3 16-24 3-18 21 5 46 67 20 67-13z m35-196c20 12 12 53 13 83-54 45-90-84-13-83z m-194-47c40-6 97 38 92 78-4 38-79 73-123 52-57-27-14-124 31-130z" />
<glyph glyph-name="foursquare" horiz-adv-x="1000" unicode="&#xed3b;" d="M736 787h-466c-64 0-83-48-83-78v-742c0-36 18-47 28-51s37-7 57 12c0 0 221 258 225 262s5 4 7 4h140c60 0 72 42 78 67 6 21 67 320 86 414 15 74-4 112-72 112z m-27-126l-21-101c-3-11-13-21-26-21h-182c-20 0-37-16-37-36v-22c0-21 17-38 37-38h154c15 0 27-14 24-28-3-16-19-95-21-103-1-9-11-21-25-21h-126c-26-1-32-1-47-20-16-19-154-192-154-192-1-1-2-1-2 1v586c0 14 11 25 25 25h378c13 0 26-13 23-30z" />
<glyph glyph-name="friendfeed" horiz-adv-x="1000" unicode="&#xed3c;" d="M938 621h-131c-25 0-53-33-53-79v-76h154v-154h-154v-385h-154v385h-230v-385h-154v385h-153v154h153v76c0 128 93 231 207 231h130v-152h-130c-25 0-53-33-53-79v-76h230v76c0 128 93 231 207 231h131v-152z" />
<glyph glyph-name="ghost" horiz-adv-x="1000" unicode="&#xed3d;" d="M63 461h875v-222h-875v222z m0 327h537v-187h-537v187z m688 0h187v-185h-187v185z m-688-675h364v-201h-364v201z m515 0h360v-201h-360v201z" />
<glyph glyph-name="github" horiz-adv-x="1000" unicode="&#xed3e;" d="M738 785c-78-49-158-8-217 0-256 34-338-266-151-386-48-25-45-152 7-170-122-14-144-185-79-255 79-85 323-79 395 0 50 56 56 170 13 222-40 48-240 56-237 131 2 53 74 45 118 66 83 39 131 157 99 248 18 4 34 10 52 13v131z m-315-275c-96 210 221 195 125 0-32-23-94-25-125 0z m177-412c9-94-182-98-204-32-18 55 5 71 60 85 62 16 139 10 144-53z" />
<glyph glyph-name="gnome" horiz-adv-x="1000" unicode="&#xed3f;" d="M677 263c169 108 42 194 42 194-172 93-370-21-370-21-212-113-77-348-77-348 84-187 269-175 269-175 104-4 196 100 196 100 74 107-29 135-29 135-105 13-109-65-109-65 0-85-60-73-60-73-137 32-47 123-47 123l185 130z m137 517c-40 24-104-9-143-74-39-65-38-137 2-161s104 9 143 74c39 65 38 137-2 161z m-254-105c0-57-26-103-58-103s-59 46-59 103c0 56 27 102 59 102s58-46 58-102z m-203-149c29 6 45 48 35 93-10 46-41 78-70 72-29-7-44-48-35-94 10-46 41-77 70-71z m-109-1c-18 36-50 57-73 47-22-11-25-50-7-86 17-37 50-58 72-47s26 49 8 86z" />
<glyph glyph-name="google-buzz" horiz-adv-x="1000" unicode="&#xed40;" d="M938 383c0-74-30-144-79-200l-262 265 216 180c77-63 125-149 125-245z m-559-75l407 341c-77 53-177 85-286 85-159 0-298-68-375-170l254-256z m-198-165l172 144-247 250c-28-47-44-99-44-154 1-93 46-177 119-240z m655 16l-264 268-191-160-4-4-1-2-56-49h-2l-81-63-30-27c6-4 13-8 19-12-15-40-37-86-69-133 76-34 164 17 226 68 37-8 76-13 117-13 135 1 256 50 336 127z" />
<glyph glyph-name="google-hangouts" horiz-adv-x="1000" unicode="&#xed41;" d="M870 479c-14 72-45 136-96 190-21 22-44 42-71 59-48 31-101 50-159 57-7 1-14 1-21 3h-49c-1-2-2-1-3-1-13-1-26-3-38-5-92-18-168-63-227-136-48-60-74-129-80-206-3-37 0-74 8-111 6-27 15-53 27-78l3-6c20-40 46-75 78-105 17-16 36-31 55-43 60-38 126-58 198-59 4 0 5-1 5-6 0-38 0-76 0-115 0-1 0-3 0-5 1 1 2 1 3 2 72 33 138 76 196 129 12 11 23 22 34 34l14 15c7 7 13 16 20 24 8 9 14 19 21 29 16 22 29 45 41 69 5 12 11 24 16 37 0 0 0 0 0 1 13 34 22 70 26 106 2 13 3 26 4 39 1 27 0 55-5 82z m-402-123c-1-33-13-60-37-82-1-2-3-3-4-4-12-9-26-17-41-21-6-2-13-3-19-4-5 0-9 2-11 7 0 14 0 28 0 42 1 5-1 9 2 13 2 2 4 3 6 3 8 2 15 4 22 8 12 7 20 18 23 32l2 6c-30 1-60 1-89 1-3 0-5 0-8 0-8 2-13 9-13 17 0 45 0 90 0 135-1 8 0 14 6 19 3 3 7 5 11 5h131c12 0 22-12 18-23 1-2 1-5 1-7 0-49 0-98 0-147z m231 154c1-3 1-5 1-7v-148c0-43-28-85-69-101-1-1-2-1-3-2 1-1 2-1 3-1-1 0-2 0-3 1 0 0-1 0-1 0-1-1-1-1-1-1-9-2-17-4-26-6-7-1-12 3-12 10 0 5 0 9 0 14 0 8 0 17 0 25l0 6c0 6 3 9 11 11 10 2 20 6 27 13 10 9 15 20 17 32l-83 1h-9c-11 0-18 7-18 19l0 133c0 1 0 1 0 1-1 9 1 16 8 20 3 2 6 3 10 3h130c12 0 22-12 18-23z" />
<glyph glyph-name="google-map" horiz-adv-x="1000" unicode="&#xed42;" d="M788 570c-3 11-10 24-14 35-56 134-179 183-278 183-132 0-277-89-297-272v-37c0-2 1-16 1-23 11-87 80-179 131-267 56-93 113-185 170-277 35 60 70 121 104 179 9 17 20 35 29 51 7 11 18 22 24 32 55 101 144 203 144 303v41c0 11-14 49-14 52z m-289-188c-39 0-82 20-103 73-3 9-2 26-2 28v24c0 68 58 99 108 99 62 0 111-49 111-112s-52-112-114-112z" />
<glyph glyph-name="google-plus" horiz-adv-x="1000" unicode="&#xed43;" d="M341 628c-154 0-278-124-278-278s124-279 278-279c161 0 267 113 267 272 0 19 0 33-4 47h-263v-96h158c-7-41-48-120-158-120-95 0-173 79-173 176s78 176 173 176c54 0 90-23 111-43l76 72c-49 46-112 73-187 73z m437-159v-79h-79v-80h79v-79h80v79h80v80h-80v79h-80z" />
<glyph glyph-name="google-talk" horiz-adv-x="1000" unicode="&#xed44;" d="M938 439c0 192-196 349-438 349-242 0-437-157-437-349 0-167 147-307 345-341-5-56-16-120-41-186 97 26 181 113 240 189 190 38 331 175 331 338z m-250-215c-6-1-12-2-18-3-6 0-13-1-19-1-6 0-11 1-17 1 69 50 114 129 114 218 0 98-54 184-135 231 13 3 25 4 38 4 116 0 210-102 210-227 0-112-75-204-173-223z" />
<glyph glyph-name="hype-machine" horiz-adv-x="1000" unicode="&#xed45;" d="M500 710c-242 0-437-147-437-329 0-97 56-185 146-245-8-46-23-101-53-146 38 0 136 45 205 80 44-11 90-17 139-17 242 0 438 147 438 328 0 182-196 329-438 329z m209-333c-1-7-4-13-8-20-8-15-19-29-31-39-62-65-170-137-170-137s-109 72-170 137c-13 10-23 24-31 39-5 7-7 13-9 20-4 13-6 27-6 41 0 73 58 132 131 132 49 0 85-53 85-88 0 35 18 88 85 88 72 0 131-59 131-132 0-14-2-28-7-41z" />
<glyph glyph-name="instagram" horiz-adv-x="1000" unicode="&#xed46;" d="M499 607c-141 0-257-115-257-256 0-142 116-257 257-257 142 0 257 115 257 257 0 141-115 256-257 256z m0-415c-87 0-159 71-159 159 0 87 72 158 159 158 88 0 159-71 159-158 0-88-71-159-159-159z m210 653h-420c-157 0-284-128-284-285v-419c0-157 127-285 284-285h420c157 0 285 128 285 285v419c0 157-128 285-285 285z m187-704c0-103-84-187-187-187h-420c-103 0-186 84-186 187v419c0 103 83 187 186 187h420c103 0 187-84 187-187v-419z m-136 541c-37 0-68-31-68-68 0-37 30-67 68-67 37 0 67 30 67 67s-30 68-67 68z" />
<glyph glyph-name="kakaotalk" horiz-adv-x="1000" unicode="&#xed47;" d="M869 788h-738c-38 0-68-31-68-69v-738c0-38 30-69 68-69h738c38 0 69 31 69 69v738c0 38-31 69-69 69z m-369-684c-21 0-43 2-63 4-21-14-139-97-150-99 0 0-5-2-9 1l-3 8c1 8 31 110 36 129-100 49-166 137-166 237 0 155 159 281 355 281s356-126 356-281-160-280-356-280z m-124 344c0 11-9 20-20 20h-105c-11 0-20-9-20-20s9-20 20-20h32v-122c0-11 9-20 21-20s20 9 20 20v122h32c11 0 20 9 20 20z m76 0c-3 10-14 20-27 20-14 0-24-10-28-20l-49-129c-6-19 0-27 5-29 4-2 9-3 13-3 9 0 15 3 17 9l11 27h62l10-27c2-6 9-9 17-9 5 0 9 1 13 3 6 2 11 9 5 29l-49 129z m-7-89h-41l21 58 20-58z m155-32h-44v120c0 12-9 21-20 21s-21-9-21-21v-139c0-10 8-19 19-19h66c11 0 20 9 20 19s-9 19-20 19z m106 60l47 47c3 3 5 7 4 12 0 5-2 9-6 13-4 4-9 6-14 6-4 0-8-1-11-4l-57-58v44c0 12-10 21-21 21s-20-9-20-21v-140c0-11 9-20 20-20s21 9 21 20v45l7 7 48-64c4-5 10-8 16-8 5 0 9 1 12 4 5 3 8 8 8 14s0 10-3 15l-51 67z" />
<glyph glyph-name="kickstarter" horiz-adv-x="1000" unicode="&#xed48;" d="M885 788h-770c-29 0-52-24-52-53v-770c0-29 23-53 52-53h770c29 0 53 24 53 53v770c0 29-24 53-53 53z m-194-654c-15-15-34-23-56-23-23 0-41 8-54 23l-118 148v-82c0-23-4-41-12-54-15-23-36-35-64-35-26 0-46 9-60 26-13 16-19 37-19 63v302c0 25 6 45 20 62 14 17 33 25 58 25 23 0 43-8 58-25 9-10 15-19 17-29 1-6 2-17 2-34v-75l88 127c16 24 38 36 64 36 21 0 40-7 55-23 16-15 24-33 24-54 0-16-4-30-12-41l-80-115 97-123c10-12 15-27 15-43 0-22-8-40-23-56z" />
<glyph glyph-name="kik" horiz-adv-x="1000" unicode="&#xed49;" d="M887 355c-28 0-50-23-50-51 0-27 22-50 50-50 28 0 51 23 51 50 0 28-23 51-51 51z m-405 48h-1l0 2c0 25-20 45-45 45s-45-20-45-45c0-1 0-1 0-1h0l-1-228h1c0-25 20-45 45-45s45 20 45 45h1l0 227z m-153-200l-83 111 60 59-1 0c8 8 13 20 13 32 0 25-21 45-46 45-13 0-25-5-34-15l0 0-84-82 0 168h-1l0 2c0 25-20 46-45 46-24 0-45-21-45-46l1-2h-2v-344h1v-1c0-25 20-45 45-45 24 0 43 19 45 43h0v59l23 21 75-100c8-14 23-23 39-23 25 0 46 21 46 46 0 9-3 18-8 25l1 1z m483 0l-83 111 59 59 0 0c8 8 12 20 12 32 0 25-20 45-45 45-13 0-25-5-34-15l0 0-84-82-1 168h0l0 2c0 25-20 46-45 46s-45-21-45-46l0-1h-1v-345h1v0c0-25 20-46 45-46 24 0 43 19 44 43h1v59l23 22 75-101c8-14 23-23 39-23 25 0 46 21 46 46 0 9-3 18-8 25l1 1z" />
<glyph glyph-name="kiwibox" horiz-adv-x="1000" unicode="&#xed4a;" d="M452 762l-389-229 146-487 420-108 309 221v504l-486 99z m428-136l-301-228-56 16-16 102c8-15 23-32 38-30 25 3 30 55 30 55 7 60-34 57-43 56-5-1-25-4-34-21l-21 129 403-79z m-335-358l-19 124 46-13 13-120-40 9z m-13-54c-3 0-15 1-10 19 0 0 4 15 12 15 8-1 12-17 12-17 3-18-12-18-14-17z m23 350c0-2-1-13-7-15-9-3-13 4-13 4-12 20 9 24 6 23 2 1 14 3 14-12z m-97 136l43-280-355 97 312 183z m-327-200l374-102 19-129 0 1c-12 0-22-12-29-24l-243-149-121 403z m140-415l211 129c-12-54 28-57 37-57 7 0 54 0 41 59 1 0-3 16-10 30l37-8 26-241-342 88z m363-83l-26 232 16-3c1-7 2-11 2-11 17-58 55-38 63-33 3 2 17 11 21 26l170-35-246-176z m32 260c5 4 16-6 16-6 11-11 1-18-1-19-2-1-11-6-16 9 0 0-5 13 1 16z m228-64l-185 36c-2 7-8 16-17 25 1 0-37 38-59 26-10-6-12-20-12-33l-15 3-14 127 302 231 0-415z m-497 135c-1 0 52 13 52 38s-53 39-52 39c-59 14-61-28-61-37 0-7 2-55 61-40z m8 65c0 0 16-4 16-11s-16-12-16-12c-18-4-18 10-18 12 0 3 0 16 18 11z m0-95c-55-26-30-60-24-67 4-5 35-41 72 7 0-1 30 45 14 64-15 20-63-4-62-4z m41-25c-12-15-22-4-23-2-2 3-11 14 8 22-1 0 15 8 20 2 5-7-5-22-5-22z m281 80c0 0-54 0-60-24-6-24 42-51 42-51 53-27 65 13 67 22 2 7 11 53-49 53z m33-30c-1-2-4-14-20-6 0 0-14 8-12 15 1 7 17 7 17 7 18 0 15-14 15-16z m-30 51c59 10 44 50 41 58-3 7-23 49-72 13 1 0-43-32-33-55 10-23 64-16 64-16z m-2 64c14 10 19-1 20-3 1-3 5-14-11-16 0 0-15-2-18 4-3 6 9 15 9 15z m-126 28c22-12 59 20 62 24 42 45 6 67-3 71-5 4-48 25-64-33 0 0-16-50 5-62z m33 77c5 16 17 8 19 7 2-1 11-7 0-18-1-1-11-8-16-5-8 5-3 15-3 16z m-174-28c-41 44-66 10-71 2-4-6-28-46 29-66-1 0 48-21 62 0 13 21-12 55-20 64z m-7-21c-4-6-18 0-18 0-17 6-9 18-8 19 1 3 9 13 21 0 2-3 9-13 5-19z" />
<glyph glyph-name="line-messenger" horiz-adv-x="1000" unicode="&#xed4b;" d="M795 850h-590c-113 0-205-92-205-205v-590c0-113 92-205 205-205h590c113 0 205 92 205 205v590c0 113-92 205-205 205z m16-614c-1-2-4-5-7-8l0-1c-12-14-25-27-40-39-101-94-268-206-290-189-19 15 31 89-27 101-4 0-8 1-12 1h0c-86 13-162 49-216 100-54 51-87 117-87 190 0 162 165 293 367 293 203 0 367-131 367-293 0-57-20-110-55-155z m-395 241h-2c-11 0-19-9-19-19v-142c0-10 8-19 19-19h2c10 0 19 9 19 19v142c0 10-9 19-19 19z m-56-140h-53v121c0 10-9 19-19 19h-2c-10 0-19-9-19-19v-142c0-10 9-19 19-19h74c11 0 19 9 19 19v2c0 10-8 19-19 19z m229 140h-2c-10 0-19-9-19-19v-83l-69 92c-3 6-10 10-17 10h-1c-11 0-19-8-19-19v-142c0-10 8-19 19-19h1c11 0 19 9 19 19v85l70-95c1-1 1-1 2-2 1-3 4-4 7-6 2 0 5-1 7-1h2c3 0 6 1 9 2 2 1 3 2 4 4 4 3 6 8 6 13v142c0 10-9 19-19 19z m137 0h-74c-11 0-20-9-20-19v-142c0-11 9-19 20-19h74c10 0 19 8 19 19v1c0 11-9 19-19 19h-54v31h54c10 0 19 8 19 19v1c0 11-9 20-19 20h-54v30h54c10 0 19 8 19 19v2c0 10-9 19-19 19z" />
<glyph glyph-name="line" horiz-adv-x="1000" unicode="&#xed4c;" d="M502 766c136-4 258-44 353-150 104-115 111-270 13-391-97-122-225-208-361-282-11-6-25-14-37-6-15 10-6 27-4 41 12 66 7 73-56 86-86 18-165 49-232 107-151 132-154 337-6 473 92 85 204 119 330 122z m79-365c-2-2-5-3-7-4-26 33-51 66-76 100-8 10-17 18-30 14-14-4-17-16-17-28-1-52-1-103-1-155 1-16 6-31 24-30 18 0 23 14 23 31 0 27 0 54 0 81 33-31 58-64 83-97 8-10 16-19 30-15 14 5 16 16 16 29v155c0 16-4 31-23 30-20-1-21-17-22-32 0-27 0-53 0-79z m76 6h0c0-26 0-53 0-79 0-16 6-30 24-31 29-2 58-2 87 0 13 1 22 10 21 24-1 12-10 19-21 20-14 2-29 2-44 2-14 0-21 5-21 21 1 14 8 17 20 17 14 0 27 0 40 1 15 1 26 7 26 24 0 15-12 20-24 22-10 1-21 0-32 1-14 0-30-4-30 20 1 24 19 16 32 18 9 1 19 0 28 0 14 2 26 7 26 24 0 15-11 19-24 22-86 19-108 2-108-86 0-6 0-13 0-20z m-439-2c0-25 0-50 0-76 0-17 7-32 27-33 27-1 55-1 83 1 12 1 23 9 23 23 0 14-11 20-24 22-8 1-16 2-24 1-33-6-40 11-38 40 2 31 0 61 0 92 0 18-1 37-24 37-22-1-23-19-23-35 0-24 0-48 0-72z m153 5c0-28 0-56 1-84 0-16 7-30 25-28 15 1 22 13 22 28 0 53 0 106-1 159 0 16-7 27-23 27-17 0-23-12-23-27-1-25 0-50-1-75z" />
<glyph glyph-name="linkedin" horiz-adv-x="1000" unicode="&#xed4d;" d="M871 788h-741c-36 0-65-28-65-63v-750c0-35 29-63 65-63h741c35 0 64 28 64 63v750c0 35-29 63-64 63z m-542-733h-131v395h131v-395z m-66 449h-1c-44 0-72 30-72 68 0 39 29 69 74 69 45 0 73-30 73-69 0-38-28-68-74-68z m539-449h-131v212c0 53-19 89-66 89-37 0-58-25-68-48-3-9-4-20-4-32v-221h-131s1 358 0 395h131v-56c17 27 49 65 118 65 87 0 151-56 151-177v-227z" />
<glyph glyph-name="linux-mint" horiz-adv-x="1000" unicode="&#xed4e;" d="M640 742h-577v-254h99v-253c0-126 129-277 255-277h519l2 506c0 131-129 278-298 278z m231-648c0-37-47-71-83-71h-338c-93 0-211 92-211 189l-1 286c0 31-30 65-60 65h-49v112h509c105 0 233-109 233-214v-367z m-244 410c-75 77-188 6-188-60l1-178 66 0v163c0 59 89 58 89 0v-163l66 0 0 163c1 55 87 54 87-2l2-190c0-31-29-71-60-71l-258 0c-35 0-73 40-73 75v359h-65v-359c0-60 54-140 128-141l289-1c54 0 106 70 106 125l0 226c0 66-136 125-190 54z" />
<glyph glyph-name="live-messenger" horiz-adv-x="1000" unicode="&#xed4f;" d="M0 261c17 155 145 209 164 216-32 26-52 64-52 107 0 76 62 138 140 138s140-62 140-138c0-42-20-81-51-106 26-9 52-23 75-41-61-31-195-119-216-309v-4c-118 7-130 39-130 39-7 8-13 16-17 28-17 4-28 14-28 14s-26 10-25 56z m492 171c-27-11-217-92-242-320-2-69 37-84 37-84s16-15 42-21c5-16 13-30 25-41 0 0 18-50 207-59 2 0 5-1 8-1h119c4 1 9 1 14 2 193 13 213 73 213 73v0c6 8 10 16 13 26 88 18 81 122 55 203-37 111-130 188-228 223 47 37 76 94 76 158 0 112-93 204-208 204s-208-92-208-204c0-64 30-122 77-159z" />
<glyph glyph-name="livejournal" horiz-adv-x="1000" unicode="&#xed50;" d="M829-65c-1 0-2 1-3 1l-296 124c-2 1-4 3-4 5-1 3 0 6 2 7 34 33 53 78 53 125 0 20-4 40-10 58-1 1-1 2-1 3l-216 290c-43-38-84-94-80-149 1-4-2-8-7-8-4 0-8 3-8 7-5 65 46 131 96 171 61 47 127 68 172 53 4-1 6-6 5-10s-6-6-10-5c-40 13-101-6-156-50l221-295c57-35 133-34 188 4 3 2 5 2 8 1 2-1 4-3 4-6l50-317c0-2-1-5-3-7-1-1-3-2-5-2z m-282 135l272-114-45 291c-55-32-127-35-183-5 3-15 5-30 5-45 0-48-17-93-49-127z m-339 404c-4 0-7 4-8 7-5 66 46 131 97 171 60 48 126 68 171 53 4-1 6-5 5-9-2-4-6-7-10-5-40 13-101-7-157-51-47-37-95-98-90-157 0-5-3-8-7-9h-1z m520-488c11 38 43 68 83 76l18-119-101 43z m-345 771c-100 0-256-142-200-242l331-440 315-132-54 345-331 438c-14 22-36 31-61 31z m0 31c37 0 67-16 86-44l331-438c3-4 5-9 6-14l54-344c1-11-3-22-12-29-5-4-12-7-19-7-4 0-8 1-12 3l-314 131c-5 3-10 6-13 10l-332 441c0 1-1 2-2 3-24 43-20 95 10 147 45 77 143 141 217 141z" />
<glyph glyph-name="magento" horiz-adv-x="1000" unicode="&#xed51;" d="M131 138v424l369 226 369-224v-426l-95-55v422l-272 169-272-172v-420l-99 56z m318 386v-495l53-29 52 32v492l120-78v-429l-173-105-171 107v428l119 77z" />
<glyph glyph-name="meetme" horiz-adv-x="1000" unicode="&#xed52;" d="M316 492c22-13 49-14 73-4 36 15 59 56 51 94-6 40-45 72-86 70-22 1-42-10-58-24-17-18-28-44-25-70 2-27 20-54 45-66z m333-54c24-16 57-17 84-5 28 16 49 46 47 78 1 45-40 86-85 84-21 2-39-9-56-18-12-14-24-30-27-48-9-34 7-72 37-91z m278-199c-13 18-37 25-57 19-16-6-28-17-42-25-79-46-168-78-259-79-71-3-143 13-207 45-75 36-141 90-191 156-10 11-17 25-30 33-17 9-38 8-54-1-24-16-33-52-15-75 79-111 193-199 324-239 78-25 163-31 244-18 96 14 188 51 268 105 15 8 25 22 29 38 1 14 0 30-10 41z" />
<glyph glyph-name="meetup" horiz-adv-x="1000" unicode="&#xed53;" d="M905 642h-811c-17 0-31-18-31-37v-510c0-19 14-37 31-37h811c18 0 33 18 33 37v510c0 19-15 37-33 37z m25-505h-853v355h853v-355z m-763 99c4 1 9 2 13 4 9 2 14 7 12 17-2 8-2 16-3 25 6-7 10-14 14-21 9-17 20-27 41-22 10 2 14 5 15 14 1 13 1 27 2 40 1 11 2 23 3 37 9-31 18-59 28-86 6-19 11-21 30-13 2 1 4 2 6 3-11 48-23 95-34 142-4 20-8 24-28 26l-7 0c-6 0-10-2-13-8-12-28-21-56-25-87-10 19-20 39-31 58-5 9-35 11-42 2-1-1-1-3-1-4 2-39 3-78 5-116 0-9 6-12 15-11z m563 12c3-5 6-11 7-16l10-65c1-3 5-7 7-7 9-1 17-1 26-1 0 4-1 6-1 8-3 21-6 42-8 62 0 4 3 11 6 11 22 7 37 23 53 39 20 19 25 44 21 70-2 15-9 27-25 31-5 1-9 4-13 4-8 1-18 2-25-1-15-8-27-20-32-36-7-21-11-43-16-64-2-8 1-16-10-20-7-3-4-10 0-15z m81 112c13-33-3-69-37-88 6 33 11 65 37 88z m-459-125c18-11 70-7 82 6-11 10-20 12-34 6-15-5-25-3-31 11-5 11-5 23-7 37 15-1 27-3 38-3 8 0 16-2 16 11-1 20 0 41-1 61-1 16-30 32-44 23-21-12-38-28-42-54-2-15-1-31-3-46-2-23 7-39 26-52z m22 114c1 0 2 0 2 0v-34c0 1-8 1-14 2 4 11 8 22 12 32z m81-109c23-11 47-13 71-1 3 2 8 6 7 8-1 3-5 8-8 9-3 2-8 0-11-2-9-8-27-11-37-6-12 8-19 24-15 38h45c2 22 3 36 5 52 1 12 3 24 4 37 0 4-3 10-6 11-8 5-18 8-27 10-4 1-9-1-12-4-6-4-12-10-17-16-20-27-27-58-27-91 0-21 10-37 28-45z m24 109c1 0 2 0 3 0v-43c-7 0-10 1-17 2 5 14 9 27 14 41z m56-53c7-1 15-1 23-2 1-12 2-23 3-34 1-12 3-23 4-37 8 2 17 3 24 5v67c14 3 25 5 41 8-8 8-13 13-18 18-12 12-15 11-23-3-1 3-1 7-1 10 0 4 1 9 1 13-1 28-3 55-2 83 0 17-2 23-18 28-14 4-19 0-21-13-1-5-2-10-1-14 1-25 4-50 6-74 1-12 2-23 3-36-8 0-15 2-21 1-4-1-9-6-10-10-2-6 3-10 10-10z m107-48c7-19 43-22 55-5 10 12 22 24 28 37 6 14 9 29 9 44 0 5-13 11-20 15-4 2-11 3-13 0-3-3-4-9-4-14 2-27-1-53-26-75-1 21-3 40-3 58-1 25-1 26-24 35-10 3-15 1-15-10 0-10 0-19 1-28 3-19 6-39 12-57z" />
<glyph glyph-name="mixx" horiz-adv-x="1000" unicode="&#xed54;" d="M938 471v210h-875v-661h211v449h120v-449h212v449h120v-449h211l1 451z" />
<glyph glyph-name="newsvine" horiz-adv-x="1000" unicode="&#xed55;" d="M531 223l104 75c10-6 21-9 33-9 35 0 62 28 62 62 0 34-27 62-62 62s-62-28-62-62c0-3 1-5 1-8l-76-55v172l105 77c10-6 21-9 32-9 35 0 62 28 62 62s-27 62-62 62-62-28-62-62c0-3 1-6 1-9l-76-55v262h-61v-139l-77 56c1 4 1 8 1 12 0 34-27 61-62 61s-62-27-62-61 28-62 62-62c11 0 21 2 30 7l108-78v-172l-77 55c1 4 1 7 1 11 0 34-27 62-62 62s-61-28-61-62c0-35 27-62 61-62 12 0 22 3 31 8l107-78v-184l-77 56c1 3 1 7 1 10 0 34-28 62-62 62s-62-28-62-62 28-62 62-62c12 0 22 3 31 8l107-77v-185h60v61l105 76c10-6 21-10 33-10 34 0 62 28 62 62s-27 62-62 62-62-28-62-62c0-2 0-5 1-7l-77-55 1 184z" />
<glyph glyph-name="nimbuss" horiz-adv-x="1000" unicode="&#xed56;" d="M62 329v41c2 13 3 25 5 37 12 92 49 172 113 240 70 75 156 120 257 135 14 2 29 4 43 6h41c3-1 6-2 9-2 17-2 35-4 52-7 236-45 391-271 348-507-45-253-299-412-547-343-167 46-290 186-315 359-2 14-4 28-6 41z m347 117l3 1c4-9 8-18 12-27l145-281c4-7 9-9 17-9 27 0 54 0 82 0 8 0 10 3 10 11 0 139 0 277 1 416 0 8-3 11-11 11-24 0-47 0-70 0-11 0-12-1-13-13 0-27 1-54 0-81-1-71 5-141 12-214-3 6-5 10-7 15-41 99-97 190-147 285-3 6-7 8-13 8-32 0-64 0-95 0-10 0-12-1-12-12 0-138 1-277 0-416 0-8 3-10 11-10 24 0 48 0 72 0 12 0 13 0 13 12 0 48 0 96-1 144-1 29-3 58-5 88-1 24-2 48-4 72z" />
<glyph glyph-name="odnoklassniki" horiz-adv-x="1000" unicode="&#xed57;" d="M500 336c125 0 226 101 226 226 0 124-101 226-226 226s-226-102-226-226c0-125 102-226 226-226z m0 319c52 0 94-42 94-93 0-52-42-94-94-94s-93 42-93 94c0 51 42 93 93 93z m91-503c46 10 91 28 132 54 30 20 40 60 20 91-19 31-60 41-91 21-92-58-212-58-304 0-31 20-72 10-91-21-20-31-10-71 21-91 40-25 85-44 131-54l-127-126c-25-26-25-68 0-94 13-13 30-20 47-20 17 0 34 7 47 20l124 124 124-124c26-26 68-26 94 0 26 26 26 68 0 93l-127 127z" />
<glyph glyph-name="opencart" horiz-adv-x="1000" unicode="&#xed58;" d="M294 160c-35 0-63-27-63-62 0-34 28-62 63-62 34 0 62 28 62 62 0 35-28 62-62 62z m284 0c-35 0-63-27-63-62 0-34 28-62 63-62 34 0 62 28 62 62 0 35-28 62-62 62z m359 317c0 25-48 36-48 36-41 12-117 14-117 14-32 2-153 2-153 2-23-1-164 4-164 4-80 2-152 13-152 13-91 14-129 35-129 35-43 19-81 54-81 54-2 1-31 29-31 29 11-17 28-46 28-46 13-21 34-43 34-43 46-48 121-72 121-72 64-23 170-31 170-31 39-6 191-4 191-4 5 0 56-1 56-1 58-1 105-11 105-11 57-11 58-37 58-37 3-33-45-78-45-78-10-11-60-63-60-63-4-4-22-25-22-25-19-23-30-43-30-43 6 6 84 73 84 73 4 3 66 56 66 56 21 18 70 64 70 64 55 46 49 74 49 74z" />
<glyph glyph-name="oscommerce" horiz-adv-x="1000" unicode="&#xed59;" d="M717 208c0-163-132-296-295-296s-296 133-296 296 132 296 296 296 295-133 295-296z m-293 316s75 185 286 130c0 0 173-51 164-245 0 0-7-129-134-192 0 0 7 127-93 224 0 0-87 88-223 83z m-104-17c-59 80-7 182-15 161 0 0 42 120 170 120 0 0 108 5 167-102 0 0-88 6-162-56 0 0-43-33-78-104-1 0-47-4-82-19z" />
<glyph glyph-name="pandora" horiz-adv-x="1000" unicode="&#xed5a;" d="M760 718c-54 46-130 70-225 70h-375v-31c120 0 135-20 135-169v-474c0-149-16-171-135-171v-30h384v30c-120 0-135 22-135 171v182h126c95 0 171 23 225 69 54 46 81 105 81 176 0 72-27 130-81 177z m-226-369h-125v385h125c118 0 180-81 180-193 0-112-62-192-180-192z" />
<glyph glyph-name="photobucket" horiz-adv-x="1000" unicode="&#xed5b;" d="M673 615c-50 33-106 48-168 48-61 0-117-16-167-48-1 1-3 0-4 0h-116v53h-102v-53h-53v-525h258c53-36 115-58 184-58 70 0 132 22 185 58h248v525h-265z m-525 21h37v-21h-37v21z m-36-497v427h167c-58-61-88-134-88-218 0-81 26-152 78-209h-157z m555-3c-47-36-100-53-162-53-61 0-114 17-161 53-10 9-18 16-25 24l-1 1c-53 52-78 113-78 188 0 74 25 136 78 188 12 13 26 24 41 35 43 28 92 43 146 43 55 0 104-15 146-43l1 0c15-10 28-22 41-34 53-53 78-115 78-189 0-74-25-136-78-188-9-9-17-18-26-25z m222 3h-147c52 57 78 128 78 209 0 84-29 157-88 218h157v-427z m-240 368c-45 45-100 68-164 68-14 0-25-11-25-25s11-24 25-24c51 0 93-18 129-53s54-79 54-130c0-13 10-24 24-24s24 11 24 24c0 64-22 119-67 164z" />
<glyph glyph-name="picasa" horiz-adv-x="1000" unicode="&#xed5c;" d="M321 159h572c-67-139-202-232-353-247h-80c-48 5-95 17-139 37v210z m359 589c-57 26-117 40-180 40-52 0-103-11-153-29 12-11 319-289 333-303v292z m-379-9c-147-76-238-225-238-390 0-37 5-76 15-114 12 11 381 346 388 353-7 7-160 146-165 151z m-26-764v377c-15-14-176-160-181-165 35-88 99-163 181-212z m452 748v-518h186c16 47 25 95 25 144 0 152-81 295-211 374z" />
<glyph glyph-name="pinterest" horiz-adv-x="1000" unicode="&#xed5d;" d="M521 788c-239 0-360-172-360-314 0-87 33-164 103-192 12-5 22-1 25 12 3 9 8 31 11 40 3 13 2 17-8 28-20 24-33 55-33 99 0 127 95 241 248 241 135 0 209-83 209-193 0-145-64-267-160-267-52 0-91 43-79 97 15 64 45 132 45 178 0 41-22 76-68 76-54 0-97-56-97-131 0-47 16-79 16-79s-55-233-65-274c-19-81-2-181-1-191 1-6 8-7 12-3 5 7 69 86 91 165 6 22 35 138 35 138 17-33 68-63 123-63 161 0 271 148 271 345 0 149-126 288-318 288z" />
<glyph glyph-name="prestashop" horiz-adv-x="1000" unicode="&#xed5e;" d="M453 96l-48 41s-23 13-40-10l-2-6s56-55 104-110c40-49 73-99 73-99l161 24s-1 50 11 106c5 22 6 48 4 72-3 38-15 76-29 81-22 8-29-2-25-20l2-22h-21s-1 58-30 57l-19-51h-18s3 54-27 54l-23-62h-17l-25 153s-1 17-21 15c-20-2-18-33-18-33l34-226-24 0-2 36z m285 581l-133-14s-12 142-166 123c-127-17-129-153-129-153l-110-11 58-561 124 13c-12 12-24 23-36 32 0 0-17 20 12 44 29 25 59 4 59 4l28-23-21 147s-12 54 36 64c0 0 40 5 45-33l15-87s31 28 62-3c0 0 35 32 68-7 0 0 42 35 71-26 11-22 16-50 17-76l61 6-61 561z m-419-40s9 105 81 131c0 0-60-54-55-129l-26-2z m34 4s6 124 88 133c79 10 120-98 120-114l-208-19z m220 23c-28 101-97 118-97 118 97-1 119-116 119-116l-22-2z" />
<glyph glyph-name="qik" horiz-adv-x="1000" unicode="&#xed5f;" d="M697-88h120c16 103 30 194 44 286 15 93 40 185 48 282 15 193-100 294-281 306-197 13-331-52-420-140-67-67-112-150-118-260-9-175 123-309 352-290 26 2 52 9 76 20 36 16 61 44 89 61-21-102-60-263 90-265z m-122 390c-36-25-119-40-172-8-93 58-36 239 33 291 19 14 43 24 77 28 27 3 75-3 97-18 81-55 41-239-35-293z" />
<glyph glyph-name="qq" horiz-adv-x="1000" unicode="&#xed60;" d="M900 299c-17 35-36 69-56 97 13 23 10 56 0 79-5 11-14 21-18 32-5 18-5 39-9 56-4 18-9 34-15 50-39 104-122 159-252 175h-54c-41 0-78-13-108-26-33-15-53-32-77-55-39-39-83-103-88-174 0-7 1-13 0-18-1-5-6-9-9-15-4-10-5-21-6-33-12-16-23-46-13-72-34-28-68-57-92-103-18-35-35-81-30-138 2-15 4-37 16-40 7-1 15 2 20 4 15 8 30 23 39 38 4 7 5 16 12 22 4-7 5-14 7-21 15-41 39-74 69-98 5-5 13-8 14-14-32-3-57-10-69-31-4-9-8-27-6-40 3-25 32-39 54-46 41-14 95-18 148-14 48 3 79 14 111 33 5 3 9 7 13 8 4 0 12-1 19-2 5 0 14 0 19-1 12-1 26-9 40-13 73-24 196-30 255 8 8 6 20 17 22 31 4 21-11 33-22 42-17 14-37 22-57 34 22 22 39 50 52 81 4 10 6 22 14 30 6-11 12-23 20-34 7-10 16-25 28-25 8 0 15 6 20 13 10 13 15 35 16 55 3 48-9 89-27 125z m-342 339c7 11 19 23 35 25 3 1 13 1 17-1 52-20 50-138 0-156-6-2-15-4-23-1-44 13-52 94-29 133z m-146-2c8 14 21 27 40 26 30 0 48-39 49-77 0-36-17-83-54-79-48 5-57 90-35 130z m-52-161c29 13 61 22 96 27 92 13 184 0 246-37 6-3 18-10 19-14 0-8-23-18-29-21-12-5-22-10-39-10 3 9 17 14 22 24-44-29-101-58-177-52-51 5-89 29-122 52 3-9 10-14 13-23-16 3-39 8-53 16-4 2-10 7-10 11-1 9 25 22 34 27z m-10-554c-59-3-118 3-152 27-7 5-19 15-16 27 4 14 20 20 29 29-9 1-14-3-22-3-7 10 4 18 13 24 14 8 25 15 43 15 2 0 5 1 6 1 5-1 16-11 22-15 52-36 121-59 197-68-19-27-70-35-120-37z m466 100c-12-3-27-1-30-12 26-2 66 5 60-29-2-8-8-18-15-23-25-21-79-34-129-32-50 2-102 10-126 30 82 11 141 47 191 90 22-1 39-12 49-24z m-14 127c-9-34-30-65-49-87-14-16-36-35-57-49-22-14-46-27-70-36-25-9-51-14-78-14-74 1-151 17-207 50-28 17-51 36-71 60-20 23-38 53-45 85-2 12-5 27-5 37-1 42 10 101 34 125 16-8 30-17 44-27-4-29-7-60-6-94 1-10 0-21 3-30 8-22 33-36 62-39 16-1 35-1 48 4 8 4 18 14 20 25 2 14-1 32-1 48 0 16-2 31-2 44 126-33 260 11 342 67 28-42 56-101 38-169z m-57 47c4-2 6-5 10-7-4 9-2 20-7 27-11 15-33 0-36-16-4-19 15-22 29-19 5-5 16-3 15 5-5-15-27 5-11 10z m-4 1c-2-2-3 2-6 1-3-1-3-5-3-10-17 1 6 35 9 9z m-7-8c1 3 0 7 3 6-1-2 0-6-3-6z m8 0c0 2 2 2 3 4-3 1-6-3-3-4z m-40-8c-8-1-15 14-5 15 5 0 6-7 11-7-1 2-2 4-3 5 1 11-1 19-6 24-13 12-36-7-35-24 1-14 17-15 30-13 5-5 16-2 16 5-4-2-3-5-8-5z m-17 8c-11-2-4 17 2 19 4-1 6-6 7-11-2-2-3 2-6 1-3-1-3-6-3-9z m3 0c-2 1 0 5 1 7 3-1 0-5-1-7z m7 0c0 2 4 3 2 5-1-1-6-4-2-5z m-120 381c6 5 5 24 15 23 9-2 2-24 18-22 6 14 0 32-10 37-13 6-25-4-29-15-2-8-5-22 6-23z m-100-18c25-1 28 68-1 64-26-3-24-62 1-64z" />
<glyph glyph-name="readernaut" horiz-adv-x="1000" unicode="&#xed61;" d="M94 435c21 69 76 82 85 84 55 127 182 217 331 217 150 0 278-90 332-218 1 0 3-1 5-1v171c-19 8-33 26-33 48 0 28 24 52 53 52s52-24 52-52c0-25-17-45-40-50v-185c17-13 35-33 44-66 0 0 18-85-11-107 0 0-14-19-55-35-3-12-7-23-11-35-15-2-31-5-49-9 25 44 40 94 40 147 0 170-148 308-330 308-182 0-329-138-329-308 0-55 15-106 41-150-15 3-29 6-43 9-5 12-9 24-12 37l-1 0c-43 16-58 36-58 36-28 22-11 107-11 107z m406-380c-126 152-437 166-437 166v-116c281-2 437-193 437-193s156 191 438 193v116s-312-14-438-166z m298 287c0-36-7-71-20-103-96-22-212-63-278-143-63 76-173 118-266 140-13 33-21 69-21 106 0 159 131 288 293 288 161 0 292-129 292-288z m-430 46c0 17-15 32-33 32-18 0-33-15-33-32s15-33 33-33c18 0 33 15 33 33z m77 81c0 28-22 50-50 50s-51-22-51-50c0-27 23-49 51-49 28 0 50 22 50 49z" />
<glyph glyph-name="reddit" horiz-adv-x="1000" unicode="&#xed62;" d="M688 317c2-5 3-11 3-17 0-12-4-24-11-33-6-10-16-17-27-20l-1 0h0c-5-2-11-3-16-3-13 0-25 5-35 12-10 8-18 19-20 33v0c-1 3-1 7-1 10 0 12 4 23 10 32 7 9 16 16 26 20h1c6 2 12 3 18 3 12 0 23-4 32-10 10-6 17-15 21-27l0 0c0 0 0 0 0 0z m-35-141c-4 3-10 5-15 5-4 0-9-1-13-4-39-23-84-36-129-36-34 0-68 7-98 22l-1 1 0 0c-4 2-10 6-15 9-3 2-6 4-10 5-3 2-7 3-11 3-3 0-6-1-10-2l0-1c-6-2-10-5-13-10-2-4-4-10-4-15 0-5 1-9 4-14 2-4 5-7 10-10 43-29 95-42 146-42 47 0 93 10 135 30l0 0 0 0c6 3 13 6 20 11 3 2 7 4 10 7 2 4 5 8 6 12 1 3 1 5 1 7 0 3-1 7-3 10-2 5-5 9-10 12z m-306 71c0 0 0 0 0 0 6-2 12-3 17-3 15 0 28 6 39 15 10 10 17 23 17 38v2c0 0 0 1 0 2 0 15-7 29-17 38-10 10-24 16-38 16-4 0-8-1-12-2h0c-19-4-35-18-41-37v0c-2-5-3-11-3-16 0-12 4-23 11-33 6-9 16-16 27-20l0 0z m590 137c0-2 1-3 1-5 0-22-7-42-19-59-10-17-25-30-42-39 1-9 2-17 2-26 0-46-16-91-43-127h0c-51-67-129-107-208-127h0c-42-11-85-16-129-16-64 0-129 12-189 36v0h0c-62 26-122 67-158 127-20 32-31 69-31 107 0 8 1 17 2 25-16 10-31 23-41 38-11 17-19 37-19 58v0c0 29 12 57 32 77s47 34 75 34h2c3 0 6 0 9 0 14 0 29-2 42-7l1-1h0c11-5 23-10 34-19 3 2 7 4 11 6 63 37 136 51 208 56 1 35 5 72 22 105 15 27 40 48 69 55l1 0h0c11 2 23 3 34 3 30 0 60-7 88-18 12 19 30 33 51 41l0 0 0 1c12 3 25 6 38 6 14 0 27-3 40-9l0 0c19-7 34-20 46-36 11-17 17-36 17-56 0-4 0-8 0-12v0c-3-26-16-49-34-65-19-16-44-26-69-26-4 0-8 0-12 0-24 2-48 14-65 32-17 18-28 42-28 67 0 2 1 3 1 4-24 11-48 19-73 19-3 0-7 0-11-1-18-1-35-13-43-30v0c-13-24-15-53-16-81 71-5 142-22 204-57h0l1-1c1-1 3-2 5-3 4 4 9 7 14 10 19 13 41 19 63 19 10 0 20-1 30-4l0 0 1 0c22-6 43-19 58-36 16-18 26-40 28-65z m-207 231c0-1 0-2 0-3v0c0-12 6-24 15-32 9-9 20-14 32-14h1c1 0 1 0 2 0 12 0 24 5 33 14 9 8 15 19 15 32v0c1 1 1 2 1 3 0 13-6 25-16 34-9 9-21 14-34 14-4 0-8 0-11-2h-1c-10-2-19-8-26-17-7-8-11-18-11-29z m-520-189c-10 5-20 8-29 8-2 0-3 0-5-1h0c-14 0-28-6-39-16-10-9-17-22-18-37v0c0-1 0-2 0-3 0-9 3-18 8-26 3-5 8-11 13-15 16 35 41 65 70 90z m614-173c0 32-12 63-30 89-37 51-94 84-153 103l-1 0c-11 3-23 7-34 9-35 8-70 12-106 12-47 0-95-7-141-21-59-19-116-52-153-103-18-26-29-58-29-89 0-12 1-24 4-35 7-25 20-48 37-68 17-20 38-37 59-50 5-3 10-6 15-9 63-35 136-51 208-51 13 0 25 1 37 2 73 6 146 27 205 71 19 14 36 31 50 50 14 19 24 40 29 64v0c2 8 3 17 3 26z m57 126c0 7-2 15-6 22l0 0v0c-5 11-13 19-23 24s-21 8-32 8c-10 0-21-2-30-6 29-26 55-56 71-91 5 4 10 10 13 16 5 8 7 18 7 27z" />
<glyph glyph-name="renren" horiz-adv-x="1000" unicode="&#xed63;" d="M426 507v277c-68-12-130-38-185-78s-99-92-131-154c-32-62-47-128-47-199 0-106 34-200 103-282 77 38 140 96 188 175s72 166 72 261z m464 45c-32 62-75 113-131 153-55 41-117 67-185 79v-277c0-95 24-183 72-261 48-79 111-137 188-175 69 82 104 176 104 282 0 71-16 137-48 199z m-316-462c-37 47-62 98-76 153-12-55-37-106-74-153-37-47-82-87-135-120 65-36 135-54 209-54 75 0 145 18 210 54-52 33-97 73-134 120z" />
<glyph glyph-name="rss" horiz-adv-x="1000" unicode="&#xed64;" d="M64 323c109 0 212-43 288-120 77-78 120-181 120-290h168c0 318-258 577-576 577l0-167z m1 297c388 0 703-317 703-707h168c0 482-391 875-871 875l0-168z m232-590c0-65-52-117-117-117-64 0-116 52-116 117s52 116 116 116c65 0 117-52 117-116z" />
<glyph glyph-name="shopify" horiz-adv-x="1000" unicode="&#xed65;" d="M634 682l-27-8c-11 35-27 59-47 73-15 11-31 15-49 14-4 5-8 9-12 13-20 15-45 18-75 7-89-33-127-149-141-207l-78-24s-19-6-23-11c-5-5-6-21-6-21l-66-512 498-93 39 770c-6 1-11 0-13-1z m-127-39l-86-26c12 44 34 90 76 108 8-23 11-54 10-82z m-72 110c18 6 32 6 43-1-57-26-81-91-92-146l-69-22c15 56 50 144 118 169z m48-378c-4 2-8 4-14 6-5 2-11 4-17 6-6 1-13 2-20 3-7 1-15 1-22 1-7-1-14-2-19-4-6-2-11-5-15-8-4-4-7-8-9-12-2-5-4-10-4-16 0-4 1-8 2-12 2-4 4-8 7-12 3-4 8-8 13-12 5-4 10-8 17-12 10-6 20-13 29-21 9-8 18-17 26-27 7-11 14-23 18-36 5-13 7-27 6-43-1-27-7-49-16-68-10-19-23-33-38-44-15-10-33-16-52-19-19-2-39-1-60 3l0 0-1 0 0 1-1 0c-9 2-19 5-27 9s-17 7-25 11c-7 5-13 9-19 14-6 4-11 9-14 14l22 76c4-3 9-7 14-11 6-4 12-8 18-11s14-7 21-10c8-3 15-5 22-6 7-1 13-1 18 0 5 1 10 3 13 6 4 3 7 7 9 11 2 5 3 10 3 15 1 5 0 10-1 15-2 4-4 9-7 14s-7 9-12 14c-5 4-11 9-18 14-9 7-17 14-24 22-7 7-14 15-19 24-5 9-9 18-12 29-3 10-4 21-3 33 1 21 5 39 11 56 7 17 17 32 29 45 13 14 28 25 45 34 18 9 39 15 61 18 11 1 21 2 30 2 10 0 19 0 28-2 8-1 16-2 23-4 7-2 13-4 18-7l-34-99z m54 278c0 3 0 6 0 10-1 27-4 49-11 68 7-1 13-3 19-7 16-11 27-34 35-58l-43-13z m258-37s-1 4-3 6-5 1-5 1l-70 6-52 51c-2 2-4 2-7 3l-38-771 270 59-95 645z" />
<glyph glyph-name="silverstripe" horiz-adv-x="1000" unicode="&#xed66;" d="M334 327c-35-23-81-15-105 20s-15 81 20 104l0 0 186 128c68 47 86 140 39 209l-310-213 0 0c-103-70-129-210-59-313 70-103 211-129 313-59v0c69 47 86 140 40 209l-124-85z m561 111c-70 103-210 129-313 59l0 0-1-1 1 1c-69-47-86-140-39-209l124 85c34 23 81 15 104-20 24-34 15-81-19-104l-186-128c-69-46-86-140-40-209l311 213c102 70 129 211 58 313z" />
<glyph glyph-name="skype" horiz-adv-x="1000" unicode="&#xed67;" d="M901 287c3 20 5 42 5 63 0 224-182 406-406 406-21 0-43-2-63-5-38 23-82 37-129 37-136 0-245-110-245-246 0-47 13-91 36-128-3-21-5-42-5-64 0-224 182-406 406-406 21 0 43 2 63 5 38-23 82-36 129-36 136 0 245 110 245 245 1 47-13 91-36 129z m-208-122c-17-24-43-44-76-57-33-14-72-21-117-21-54 0-99 9-134 28-25 14-45 32-61 55-16 23-24 45-24 67 0 13 5 24 15 34 10 9 22 13 37 13 12 0 22-3 31-10 8-8 15-18 21-32 7-16 14-29 22-40 8-10 19-19 33-26 15-7 34-10 57-10 33 0 59 7 79 21 20 14 30 31 30 51 0 16-5 29-16 40-11 10-25 18-42 23-18 6-41 11-70 18-39 8-72 18-99 30-26 11-48 27-63 47-16 20-24 45-24 74 0 28 8 53 25 75 16 22 40 39 72 51 31 12 68 18 110 18 33 0 63-4 87-12 25-8 45-18 62-31 16-13 28-27 35-41 8-14 12-28 12-42 0-12-5-24-15-34-9-10-22-15-36-15-13 0-23 3-30 9-7 6-14 16-22 29-9 19-21 34-35 44-13 11-35 16-66 16-28 0-51-6-68-17-17-12-25-25-25-40 0-10 3-18 8-26 6-7 14-13 24-18 11-5 21-9 32-12 10-3 28-8 52-13 31-7 59-14 84-23 25-8 46-17 64-29 18-12 32-26 42-44 10-18 15-40 15-66 0-31-9-59-26-84z" />
<glyph glyph-name="slack" horiz-adv-x="1000" unicode="&#xed68;" d="M937 326l-1 3c-10 30-39 51-72 50-9 0-17-1-25-4l-86-29-56 166c81 28 83 28 83 28 35 12 64 48 52 89l-1 3c-11 31-39 51-73 51-7 0-15-1-23-3l-85-29-29 84c-6 20-20 36-38 45-11 5-23 8-35 8-8 0-16-2-24-4-38-13-60-55-49-94l1-3 29-85-164-55-29 84c-10 32-40 53-73 52-8 0-16-1-24-4-39-13-60-54-49-93 0-1 1-2 1-4l28-83-83-28c-39-13-60-54-49-93 0-1 1-2 1-4 10-30 38-50 71-50 8 1 17 2 25 5 29 10 57 19 83 28l55-164-82-28c-39-13-61-55-50-94 1-2 1-3 2-4 10-30 38-49 71-49 9 0 18 2 26 4l81 28 29-85c11-32 40-53 73-53 9 1 17 2 24 4 39 14 61 55 49 94 0 1 0 2-1 4l-29 86 164 56 29-87c11-32 40-53 74-52 8 0 16 1 23 4 39 13 61 54 49 95l0 2-30 87 91 31s28 13 37 26c12 19 15 43 9 64z m-493-84l-56 164c65 23 119 41 164 56l55-165-163-55z" />
<glyph glyph-name="slashdot" horiz-adv-x="1000" unicode="&#xed69;" d="M145-81l386 869h168l-387-869h-167z m709 132c0 76-62 138-138 138s-139-62-139-138c0-77 62-138 139-138s138 61 138 138z" />
<glyph glyph-name="slidshare" horiz-adv-x="1000" unicode="&#xed6a;" d="M552 351c21-20 45-30 74-30 28 0 53 10 72 30 20 19 30 44 30 72s-10 53-30 74-44 30-72 30-53-10-74-30-30-45-30-74c0-28 10-53 30-72z m366 24c-10 0-20-3-29-10v423h-781v-423c-16 10-28 12-38 5-4-4-1-16 9-34 50-50 110-91 180-121-15-46-20-93-16-140 6-45 22-83 50-115 27-32 62-48 104-48 22 0 41 7 60 22 18 14 27 31 27 52v184c1 0 6-1 14-4 8-3 13-4 17-4v-173c0-12 3-23 8-32 20-28 46-41 79-41 43 1 78 17 105 47 27 31 43 69 49 113 4 47-1 94-16 142 4 1 15 6 34 15 19 10 32 16 40 21 8 5 20 12 37 21 16 10 29 19 37 27 9 8 17 18 26 29 8 11 14 22 18 32 1 8-4 12-14 12z m-75-37c-5-4-17-9-34-17l-612-7c-6 2-13 6-23 11-10 5-17 9-21 11v405h690v-403h0z m-535 13c21-20 45-30 74-30 28 0 52 10 72 30 20 19 30 44 30 72s-10 53-30 74-44 30-72 30-53-10-74-30-31-45-31-74c0-28 11-53 31-72z" />
<glyph glyph-name="smugmug" horiz-adv-x="1000" unicode="&#xed6b;" d="M416 722c0-36-38-66-84-66-47 0-85 30-85 66 0 36 38 66 85 66 47 0 84-30 84-66z m296 66c-46 0-84-30-84-66 0-36 38-66 84-66 47 0 85 30 85 66 0 36-38 66-85 66z m226-334c0-65-145-542-517-542-371 0-413 350-310 566 21 43 42 47 42 47h723s62-6 62-71z m-88-16h-663c-44-88-62-228-3-328 54-91 159-110 237-110 282 0 408 350 429 438z" />
<glyph glyph-name="snapchat" horiz-adv-x="1000" unicode="&#xed6c;" d="M936 583c0 16-1 31-4 47-4 19-9 37-18 54-9 19-21 35-36 49-23 22-49 37-80 45-27 8-55 9-84 9 0 0 0 0 0 0h-428v0c-17 0-33 0-49-2-17-2-35-5-51-11-26-10-49-25-68-45-22-23-38-49-46-80-7-27-9-55-9-83l0-431c0-19 1-39 4-58 3-20 8-40 18-59 13-25 30-46 52-64 16-12 34-22 53-28 28-9 57-13 86-13 19 0 37 0 55 0 134 0 267-1 400 1 18 0 35 2 53 5 33 6 63 20 88 43 29 26 49 58 58 97 5 25 7 51 7 76v5c0 2-1 437-1 443z m-108-401c0-2-1-5-2-7-3-7-10-13-22-19-14-6-36-12-64-16-1-3-3-10-4-15-1-5-2-10-4-15-2-8-8-13-17-13h0l0 0c-4 0-9 1-15 2-10 2-21 4-35 4-8 0-16-1-24-2-17-3-30-13-46-24-24-16-50-35-91-35-2 0-3 0-5 0-1 0-2 0-3 0-41 0-67 19-91 35-16 12-30 21-46 24-8 1-16 2-24 2-15 0-26-2-35-4-6-1-10-2-15-2-11 0-16 7-17 13-2 5-3 10-4 15-1 5-3 12-4 14-28 5-50 10-64 17-12 6-19 12-23 19 0 2-1 5-1 7-1 8 5 15 13 16 19 3 38 11 56 22 14 9 27 21 40 35 21 25 32 49 33 51 0 1 0 1 0 1 4 9 5 17 3 23-5 11-23 17-35 21-4 1-7 2-10 3-10 4-19 9-24 14-10 9-10 18-10 23 2 7 7 13 14 18 6 3 13 5 20 5 4 0 8-1 11-2 11-5 21-8 29-8 5 0 9 1 11 2l-1 15v0c-3 44-6 100 9 133 10 22 23 41 40 57 13 13 29 24 47 32 32 14 61 15 75 15 1 0 8 0 12 0h1c15 0 44-2 75-15 18-8 34-19 48-32 17-16 30-35 40-57 15-33 12-89 9-133l0-2c-1-5-1-9-1-13 2-1 5-2 9-2 8 1 17 3 27 8 5 2 10 3 13 3 5 0 10-1 15-3 13-5 21-14 21-25 0-4-1-11-8-18-6-5-14-10-26-15-3-1-7-2-10-3-12-4-31-10-35-21-3-6-2-14 3-23l0-1c2-3 41-93 129-108 8-1 13-8 13-16z" />
<glyph glyph-name="soundcloud" horiz-adv-x="1000" unicode="&#xed6d;" d="M280 413c-8 0-16-3-22-9s-9-13-9-22v-251h0c0-8 3-14 9-18s13-6 22-6c9 0 16 2 22 6s8 10 8 18v251c0 9-3 16-9 22-6 6-13 9-21 9z m-188-70c-8 0-15-3-21-9-6-6-9-13-9-21v-119c0-10 4-19 12-24 8-6 17-8 26-6 8 2 14 5 17 9 4 4 5 11 5 22v118c0 8-2 15-8 21-6 6-13 9-22 9z m94 106c-8 0-15-3-21-9-6-6-9-13-9-21v-275c0-8 3-14 9-18 5-4 12-6 21-6 9 0 16 2 22 6s8 10 8 18v275c0 8-3 15-8 21-6 6-13 9-22 9z m197 127c-9 2-18-1-27-8s-13-18-13-31v-407c0-15 10-23 30-23s30 8 30 23v407c0 23-7 36-20 39z m514-234c-27 27-59 40-97 40-19 0-37-3-53-10-4 40-17 78-39 111s-51 61-87 80c-35 20-74 30-116 30-17 0-36-2-54-7-8-2-13-11-13-25v-443c0-2 1-3 2-6s3-3 6-4l354-1c38 0 70 14 97 41s41 59 41 97c0 38-14 70-41 97z" />
<glyph glyph-name="spotify" horiz-adv-x="1000" unicode="&#xed6e;" d="M500 787c-242 0-437-195-437-437s195-438 437-438 438 196 438 438-196 437-438 437z m201-630c-8-13-25-17-38-10-102 63-232 77-384 43-15-4-29 5-33 20-3 15 6 29 21 33 167 38 309 21 425-49 13-8 17-25 9-37z m53 119c-10-16-31-21-47-12-117 73-297 94-436 51-18-5-37 5-42 23-6 18 4 37 22 43 159 48 357 25 492-58 16-10 21-31 11-47z m5 124c-141 83-374 91-508 50-22-6-45 6-51 28-7 21 5 44 27 51 154 46 411 37 574-59 19-11 25-37 14-56s-37-26-56-14z" />
<glyph glyph-name="stack-exchange" horiz-adv-x="1000" unicode="&#xed6f;" d="M147 405h706v-145h-706z m0-185v-38c0-32 11-60 33-82 22-23 48-34 79-34h301v-154l149 154h32c31 0 57 11 79 34 22 22 33 50 33 82v38h-706z m0 372h706v-145h-706z m706 80c0 32-11 59-33 82s-48 34-79 34h-482c-31 0-57-12-79-34-22-23-33-50-33-82v-38h706v38z" />
<glyph glyph-name="stack-overflow" horiz-adv-x="1000" unicode="&#xed70;" d="M310 309l16 67 335-81-16-67z m51 156l31 61 307-157-31-61z m94 153l45 52 260-227-45-52z m138 131l57 39 193-285-57-39z m-298-586l4 68 344-18-3-69z m416 104v-286h-485v286h-69l0-355h623l0 355z m-417-148h347v-69h-347z" />
<glyph glyph-name="steam" horiz-adv-x="1000" unicode="&#xed71;" d="M872 462c0-45-36-81-81-81s-81 36-81 81 36 80 81 80c45 0 81-36 81-80z m-33-137l-98-83c1-7 2-14 2-21 0-71-58-129-129-129-62 0-113 43-126 101l-243 82c-19-15-43-24-68-24-63 0-115 51-115 114 0 63 52 114 115 114 54 0 99-38 111-88l234-79c23 23 54 37 89 38l35 106c0 2 0 4 0 6 0 81 65 146 146 146 80 0 146-65 146-146 0-63-41-117-99-137z m-591 79c-13 25-39 41-69 41-45 0-80-35-80-79s35-80 80-80c8 0 16 1 23 3l-38 13c-31 17-42 54-26 85 17 30 55 42 85 26l25-9z m430 58c0-62 51-113 113-113s114 51 114 113c0 62-51 113-114 113s-113-51-113-113z m2-252c0 48-39 86-86 86-7 0-13-1-20-2l49-16c30-17 42-55 25-85-16-31-54-42-85-26l-52 18c11-35 44-61 83-61 47 0 86 39 86 86z" />
<glyph glyph-name="stumbleupon" horiz-adv-x="1000" unicode="&#xed72;" d="M546 434l60-28 89 27v62c-3 105-89 189-195 189-106 0-191-83-195-188v-283c0-25-21-46-46-46-26 0-47 21-47 46v120h-149v-121c0-108 87-196 195-196 107 0 194 86 196 193l0 279c0 26 20 46 46 46 26 0 46-20 46-46v-54z m242-101v-125c0-26-21-47-46-47-26 0-47 21-47 47v123l-89-27-60 28v-122c1-107 89-194 196-194 108 0 196 88 196 196v121h-150z" />
<glyph glyph-name="tagged" horiz-adv-x="1000" unicode="&#xed73;" d="M459 365c1 25-22 49-47 48-37 1-73 0-110 1-40 1-73 41-67 81 5 33 35 61 69 61 184 0 368 0 552 0 11-1 21 10 18 21-5 12-17 18-27 25l-281 161c-17 10-33 21-53 25h-27c-13-2-24-8-35-14l-303-175c-20-12-35-33-38-57v-379c1-24 16-47 37-59 39-23 78-45 118-68 8-6 21-7 28 1 7 7 10 16 14 24l138 263c6 13 15 26 14 41z m431 48l-142 0c-58 1-114-34-141-85-65-126-131-251-195-377 25-13 48-32 76-39h23c17 4 32 13 47 22l275 159c17 9 34 19 45 34 9 13 12 29 12 44 0 80 0 161 0 242z" />
<glyph glyph-name="technorati" horiz-adv-x="1000" unicode="&#xed74;" d="M205 760c41 5 83 2 124 3-42-52-78-112-84-180-12-105 42-209 123-273 21-12 13-38 12-59-5-49-12-99-16-149 64 36 120 84 185 118 131-25 274-10 388 63 0-57 0-115 0-173 2-66-39-131-99-158-28-14-60-16-91-15-173 0-347 0-521 0-87 1-163 79-163 166-1 160 0 320 0 480-5 83 61 162 142 177z m229-112c-29-31-50-71-50-114-4-58 29-113 74-147 96-73 235-79 339-21 58 32 105 92 106 160 2 60-33 117-81 151-54 39-122 57-189 54-73-1-148-29-199-83z" />
<glyph glyph-name="telegram" horiz-adv-x="1000" unicode="&#xed75;" d="M500 788c-242 0-437-196-437-438s195-438 437-438 438 196 438 438-196 438-438 438z m135-646s-11-27-41-14l-112 85-68 54 0 2s200 180 208 188l6 9c0 9-15 0-15 0l-265-168-110 37s-17 6-19 19c-2 13 19 20 19 20l439 172s36 16 36-10l-78-394z" />
<glyph glyph-name="tinder" horiz-adv-x="1000" unicode="&#xed76;" d="M349 554c4-22 6-42 10-62 6-25 18-46 33-67 5-6 9-6 15-2 69 51 120 114 135 202 9 51 4 101-12 150-1 4-2 7-4 13 3-2 4-2 5-3 99-93 186-195 245-318 41-86 65-176 59-272-7-119-64-204-175-249-129-51-256-46-376 27-58 36-100 85-115 154-11 51-3 101 12 150 26 85 72 158 126 227 14 17 28 33 42 50z" />
<glyph glyph-name="trello" horiz-adv-x="1000" unicode="&#xed77;" d="M852 788h-704c-47 0-85-39-85-86v-704c0-47 38-85 85-85h704c47 0 85 38 85 85v704c1 47-38 86-85 86z m-409-675c0-22-18-41-41-41h-185c-22 0-41 19-41 41v520c0 22 19 41 41 41h185c23 0 41-19 41-41v-520z m381 219c0-23-19-41-41-41h-185c-23 0-41 18-41 41v301c0 22 18 41 41 41h185c22 0 41-19 41-41v-301z" />
<glyph glyph-name="tumblr" horiz-adv-x="1000" unicode="&#xed78;" d="M576 72c-14 9-28 24-33 38-6 15-5 44-5 95v224h204v156h-204v203h-125c-6-45-16-83-31-112-15-29-35-54-60-75-25-21-65-37-99-48v-124h119v-307c0-40 5-70 13-92 9-21 24-41 46-59 22-19 48-33 79-43 31-11 55-16 95-16 36 0 69 4 99 11 31 7 65 20 103 37v138c-44-29-89-43-134-43-25 0-47 6-67 17z" />
<glyph glyph-name="twitch" horiz-adv-x="1000" unicode="&#xed79;" d="M139 787l-57-152v-608h209v-115h114l114 115h171l228 228v532h-779z m703-494l-133-133h-209l-114-114v114h-171v551h627v-418z m-418 266h76v-228h-76z m209 0h76v-228h-76z" />
<glyph glyph-name="twitter" horiz-adv-x="1000" unicode="&#xed7a;" d="M938 622c-33-15-67-24-104-29 38 22 66 58 79 100-34-21-73-36-114-44-32 35-79 57-131 57-99 0-179-81-179-180 0-14 1-28 4-41-149 8-281 79-370 188-15-27-24-58-24-90 0-63 32-118 80-150-30 1-57 9-81 23v-3c0-87 61-159 144-176-15-4-31-6-48-6-11 0-23 1-33 3 22-71 89-123 167-124-61-49-139-77-223-77-14 0-28 1-43 2 80-51 174-80 276-80 330 0 510 273 510 510 0 8 0 16 0 24 35 25 66 57 90 93z" />
<glyph glyph-name="typo3" horiz-adv-x="1000" unicode="&#xed7b;" d="M779 316c90 103 182 318 135 401-47 83-199 70-286 70-169 0 57-421 151-471z m-332 460c-164-42-374-63-374-174 0-205 181-690 336-690h34c111 0 240 195 282 274-101-62-414 522-278 590z" />
<glyph glyph-name="ubercart" horiz-adv-x="1000" unicode="&#xed7c;" d="M711 736c-372 84-556-67-556-67-149-104-73-278-73-278 79-235 225-367 225-367 190-174 356-28 356-28 212 178 263 434 263 434 73 230-215 306-215 306z m-180-85h50v-74h-50v74z m-109 0h50v-74h-50v74z m-19-520h-36s-22-1-24 17v48s-2 19 22 18h44s17 3 19-14l1-53c0 0 0-18-26-16z m233 0h-37s-21-1-24 17v48s-2 19 23 18h44s17 3 19-14l1-53s0-18-26-16z m9 107h-290s-21 4-24 28v268h65v-261h210l1 261h64v-268s1-24-26-28z m145 239h-92v42h92v-42z" />
<glyph glyph-name="viber" horiz-adv-x="1000" unicode="&#xed7d;" d="M935 664c-2 14-7 28-14 42-22 44-67 75-117 81-11 1-599 1-610-1-17-1-36-8-53-16-39-21-68-61-76-106-2-9-2-22-2-316v-306l2-10c14-61 57-104 118-117l9-3h616l9 3c61 13 104 56 118 117l2 10v306c0 294 0 307-2 316z m-455-35c4 4 7 4 22 4 8 0 20-1 26-2 32-4 58-12 87-26 28-14 46-27 70-50 22-23 34-39 47-66 19-36 29-80 31-128 1-16 0-20-4-25-7-9-22-7-28 3-2 3-2 6-3 19 0 20-2 33-5 49-11 61-40 109-86 144-39 30-79 44-132 47-18 1-21 2-25 5-7 6-8 19 0 26z m111-121c-19 12-47 20-72 22-9 1-14 3-18 7-5 6-5 14-1 21 5 7 12 8 35 5 57-8 100-35 129-77 17-25 27-53 30-83 1-11 1-32 0-35-1-3-5-8-9-9-3-2-11-2-15 0-7 4-10 10-10 25 0 25-6 50-17 70-12 23-30 41-52 54z m32-124c-6-5-16-6-22-1-5 4-6 7-7 17-1 13-4 22-7 30-9 18-23 27-48 30-11 1-15 2-18 7-7 8-5 21 5 26 3 2 5 2 13 1 5 0 12-1 16-2 18-3 32-10 44-22 16-15 24-32 28-58 3-16 2-23-4-28z m139-246c-6-18-33-51-52-66-17-13-29-18-45-18-13-1-19 0-36 7-131 54-236 135-319 246-43 58-77 118-99 181-13 36-14 52-3 70 5 8 24 28 39 39 24 18 35 24 44 26 6 1 17 0 24-2 3-1 8-4 11-6 18-12 67-75 83-106 9-19 12-32 10-42-3-10-8-16-31-34-8-7-17-14-18-16-3-5-6-15-6-22 0-15 10-44 23-65 11-17 29-39 47-56 22-19 41-33 62-43 27-14 44-17 56-12 3 2 7 4 8 4 1 1 8 10 16 20 15 19 18 22 29 26 13 4 26 3 40-4 10-5 33-19 47-29 19-14 60-47 66-54 9-12 11-27 4-44z" />
<glyph glyph-name="viddler" horiz-adv-x="1000" unicode="&#xed7e;" d="M726 296c117 0 212 93 212 209 0 116-95 210-212 210-106 0-194-78-209-179h-6c-16 101-103 179-209 179-117 0-212-94-212-210 0-114 93-208 208-209v0h7v-72l-242 65v-278l242 72v-98h356l-104 311h169z m-424 150c-33 0-60 26-60 59s27 59 60 59c33 0 59-26 59-59 0-33-26-59-59-59z m369 59c0 33 27 59 60 59 33 0 59-26 59-59 0-33-26-59-59-59-33 0-60 26-60 59z" />
<glyph glyph-name="vimeo" horiz-adv-x="1000" unicode="&#xed7f;" d="M63 524l35-46s73 57 98 29c24-29 117-378 149-442 27-57 102-132 184-78 82 53 355 286 404 562 49 275-329 217-369-22 100 60 154-25 103-120-51-96-98-158-122-158-25 0-44 64-72 175-28 116-28 324-148 300-114-22-262-200-262-200z" />
<glyph glyph-name="vine" horiz-adv-x="1000" unicode="&#xed80;" d="M883 248c-14-3-28-6-43-7-18-2-36-3-54-4-6-1-8-2-11-7-53-108-125-201-214-282-13-12-27-22-43-29-22-9-43-9-64 2-26 13-47 32-68 52-51 50-90 109-123 172-46 88-78 180-103 275-19 75-33 151-43 228 0 2 0 5-1 8h149c2-12 3-24 5-36 18-134 49-266 109-389 30-61 67-118 111-171 1-2 3-4 5-6 61 63 110 134 150 212-1 1-2 2-2 2-71 38-116 98-140 174-20 62-25 125-9 189 13 54 41 99 89 128 39 24 81 31 126 28 29-2 57-9 83-23 44-24 69-63 81-110 5-17 6-35 9-53 0-2 1-5 1-8v-35c-1-12-2-24-4-36-4-32-12-62-24-92-2-4-3-6-8-6-16-1-33-3-49-1-27 3-50 15-68 37-4 4-4 7-3 12 10 34 16 69 14 105-1 19-4 37-13 53-18 31-58 35-82 8-9-11-14-23-17-36-9-36-7-72 2-108 12-52 38-94 85-122 53-31 109-33 168-19l-1-105z" />
<glyph glyph-name="virb" horiz-adv-x="1000" unicode="&#xed81;" d="M471 83h-192l-216 534h185l128-349 128 349h179l-212-534z m467 442c0 50-41 90-91 90-50 0-91-40-91-90 0-50 41-90 91-90 50 0 91 40 91 90z" />
<glyph glyph-name="virtuemart" horiz-adv-x="1000" unicode="&#xed82;" d="M817 651l-2-1s-19-19-34-55c0 0-17-51-24-167 0 0-1-120-36-192 0 0 27-11 20-53 0 0-4-48-40-43 0 0-19 4-22 40l-89-59s20-50-19-83c0 0-32-26-52 17 0 0-18 46 21 77l-19-4s-17-17-20-39c0 0-1-12-4-17 0 0-6-6-62-6 0 0-76 2-104 10 0 0-11-33-34-31 0 0-33 1-28 59 0 0-15 14 4 38 0 0 23 27 92 57 0 0 42 18 51 24 0 0 18 7 25 34 0 0-62-7-90 3 0 0-29 6-52 23 0 0-16 5-38 91 0 0-23 81-13 110 0 0 23 80 221 124 0 0 11 68 82 86 0 0 25 1 28-2 0 0 2-2 2-7l203-3c-76 66-175 106-284 106-242 0-437-196-437-438s195-438 437-438 438 196 438 438c0 117-46 223-121 301z m-259 31s-57-22-56-86c0 0 170 0 185-16 0 0-170 5-189 0 0 0-14-61-17-72 0 0 1-20-3 62 0 0 2 12-22 7 0 0-103-19-158-78 0 0-31-33 14-42 0 0 42-8 87-7l38-143-19 141 15 1 29-133-13 134 16 3 25-130-10 133 14 2 22-125-3 128 14 4 18-126 1 129 17 4 12-127 7 130 17 5 5-136 10 140 18 7 1-138 16 143 19 8-5-142 22 148 18 12-7-153 35 177s24 108 77 114c0 0-46-30-56-106 0 0-14-88-18-165 0 0-7-93-25-129 0 0-31-15-41-68l-86-57s1 8-18 10c0 0 64 38 95 66 0 0 20 23 23 59 0 0 4 33 9 40 0 0-85-31-208-35 0 0 6-46-30-64 0 0-111-55-122-66 0 0-15-12-14-17 0 0 1-20 72-26 0 0 67-5 104 8 0 0-5-3-8-22 0 0-75-7-140 4 0 0-51 6-59 24 0 0-6 16 41 43 0 0 14 12 88 47 0 0 27 12 37 36 0 0 6 30 10 36 0 0-107-21-147 22 0 0-20 22-41 132 0 0-11 47 8 65 0 0 41 63 207 95 0 0 8 84 69 90z m5-10s226-3 234-3c0 0-24-6-46-25 0 0-184 9-200 7 0 0-15 1-7 9 0 0 10 9 19 12z m-30-30s-4-4 34-4l179-8s-21-37-31-80h-10s-57-34-111-47c0 0-104-36-224-34 0 0-88-1-55 23 0 0 50 53 146 70l13-83 8 3 29 83s94 6 194-2c0 0 8 32-34 39 0 0-48 12-148 9 0 0 2 21 10 31z m-31-383s95-3 163 24c0 0 3-40-36-71 0 0-29-31-108-71 0 0-26-17-65-22 0 0-76-7-111 11 0 0-11 5 95 53 0 0 6-26 24-23 0 0 27 6 20 54 0 0 16 10 18 45z m73-146c-12 16-29 4-29 4-18-13-18-39-18-39 3-20 13-27 13-27 18-12 32 9 32 9 19 33 2 53 2 53z m-16-50s-12-2-13 9c0 0 11-1 12 14 0 0 1 11-10 13 0 0 24 20 27-9 1 0 2-26-16-27z m164 154c-16 17-29-10-29-10-10-32 3-47 3-47 13-16 26 4 26 4 19 32 0 53 0 53z m-4-49s-11-6-15 5c0 0 4 1 5 11 0 0 2 11-7 13 0 0 11 22 22 5 0 0 11-21-5-34z" />
<glyph glyph-name="vk" horiz-adv-x="1000" unicode="&#xed83;" d="M491 103h52s16 1 24 10c7 8 7 23 7 23s-1 70 32 81c32 10 73-68 117-98 33-23 58-18 58-18l117 2s61 3 32 51c-3 4-17 36-87 101-73 68-64 57 25 175 53 71 75 115 68 134-6 17-46 13-46 13l-131-1s-10 1-17-3c-7-4-12-14-12-14s-21-56-48-103c-59-99-82-104-92-98-22 14-17 57-17 88 0 97 15 137-28 147-15 4-25 6-62 6-47 1-86 0-109-11-15-7-26-23-19-24 8-2 28-6 38-20 14-18 13-59 13-59s8-114-18-128c-17-10-42 10-94 100-27 47-47 98-47 98s-4 9-11 14c-8 7-20 9-20 9l-125-1s-19-1-26-9c-6-7 0-22 0-22s98-229 209-345c101-105 217-98 217-98" />
<glyph glyph-name="wechat" horiz-adv-x="1000" unicode="&#xed84;" d="M158 135c8 25 16 51 25 76 4 10 2 14-7 21-57 42-98 95-110 166-15 93 17 170 86 230 133 116 346 111 473-12 34-33 58-72 70-119 2-11 1-14-11-14-86 4-163-20-225-80-64-61-88-134-65-221 4-12 0-14-11-14-34 1-67 3-99 14-14 4-25 3-38-4-25-15-51-28-77-42-3-1-5-4-11-1z m157 400c1 23-19 44-43 44-24 1-44-19-45-43 0-23 20-44 43-45 25-1 45 18 45 44z m220-1c1 24-19 45-43 45-24 1-44-18-45-42-1-24 18-45 41-46 25-1 46 18 47 43z m149-66c75-2 152-31 209-101 67-84 57-203-23-277-5-4-9-9-14-13-21-17-21-17-13-43 3-11 7-21 11-32 1-4 2-9-2-13-4-3-7 2-10 3-18 10-37 19-55 30-11 7-22 6-35 3-96-24-186-11-266 50-113 86-113 244-1 331 53 41 114 62 199 62z m-97-119c-18 0-34-17-34-35 0-19 17-36 36-36 19 1 34 17 34 36 0 19-16 35-36 35z m212-35c0 19-16 35-36 35-19-1-34-17-34-36 0-19 17-35 35-35 19 0 35 17 35 36z" />
<glyph glyph-name="weibo" horiz-adv-x="1000" unicode="&#xed85;" d="M937 492c-10 129-117 227-260 208-18-3-37-2-41-24-9-51 47-35 71-35 84 0 170-70 169-171-1-35-29-93 24-88 32 3 40 61 37 110z m-233-117c14 34 22 80 0 105-49 57-160-2-212-5 24 74-3 150-93 127-84-21-145-66-203-125-61-61-123-132-132-225-11-107 57-161 122-198 194-110 506-49 609 96 14 20 29 52 32 75 12 100-62 116-123 150z m-66-235c-53-61-166-101-278-93-98 6-231 64-206 186 11 54 55 90 93 112 46 27 91 41 157 47 120 10 273-35 273-157 1-39-19-73-39-95z m152 281c21 1 32 34 27 71-7 52-53 95-115 90-14-1-39 2-39-26 0-39 43-17 71-30 14-6 30-29 32-49 2-32-12-58 24-56z m-399-98c-83-8-162-80-129-171 49-135 321-62 269 95-16 48-69 84-140 76z m-29-186c-64-15-75 68-17 81 69 16 63-70 17-81z m44 84c0 24 32 27 34 9 2-15-23-29-34-9z" />
<glyph glyph-name="whatsapp" horiz-adv-x="1000" unicode="&#xed86;" d="M508 788c-235 0-426-191-426-427 0-80 22-156 61-220l-77-229 236 76c61-34 131-53 206-53 235 0 426 191 426 426s-191 427-426 427z m209-574c-9-25-43-45-71-51-18-4-43-7-125 27-106 44-173 151-179 158-5 7-42 56-42 108s26 76 37 87c8 9 23 13 36 13 5 0 9 0 12-1 11 0 16-1 23-17 9-21 30-73 32-78 3-5 5-12 2-19-4-7-7-11-12-17-5-6-10-10-16-17-4-6-10-12-4-22 6-11 27-45 58-73 40-35 73-47 85-51 8-4 19-3 25 4 8 8 18 23 28 37 7 10 16 11 26 7 9-3 60-28 71-33 11-6 18-8 20-13 2-4 2-25-6-49z" />
<glyph glyph-name="xing" horiz-adv-x="1000" unicode="&#xed87;" d="M601-88l-196 344 304 532h204l-303-532 196-344h-205z m-321 265l152 250-114 201h-193l114-201-152-250h193z" />
<glyph glyph-name="yahoo" horiz-adv-x="1000" unicode="&#xed88;" d="M893 744s-6 1-11 1c-25 0-50-15-50-54-16-191-31-383-57-565 15 2 28-2 40-6 29 185 99 463 116 542 3 11 7 24 7 33 0 28-18 44-45 49z m-301 9c-30-56-141-238-212-354-71 119-156 256-211 354-44-9-63-10-106 0 86-131 226-380 273-462l-6-341s30 5 50 5c23 0 51-5 51-5l-6 341c88 155 234 408 274 462-38-9-73-9-107 0z m180-704c-34 0-50-26-50-53 0-32 25-49 57-49 23 0 48 14 48 52 1 31-23 50-55 50z" />
<glyph glyph-name="yelp" horiz-adv-x="1000" unicode="&#xed89;" d="M583 229c-15-15-3-42-3-42l111-185s19-25 34-25c16 0 32 13 32 13l88 126s9 16 9 29c0 20-29 26-29 26l-208 66s-21 6-34-8z m-11 94c11-18 40-13 40-13l208 61s28 11 32 26c4 16-5 34-5 34l-99 117s-8 15-26 16c-20 2-32-22-32-22l-117-184s-11-19-1-35z m-98 72c24 6 28 41 28 41l-1 296s-4 36-20 46c-26 16-34 8-41 7l-173-64s-16-6-25-20c-13-20 13-49 13-49l179-245c0 0 18-18 40-12z m-42-120c0 23-28 37-28 37l-185 93s-28 11-41 4c-10-6-19-17-20-27l-12-149s-2-25 5-37c9-17 40-5 40-5l217 48c8 5 23 6 24 36z m53-80c-18 9-41-10-41-10l-144-160s-18-24-14-39c4-14 12-21 22-26l145-46s18-4 31 0c19 6 16 35 16 35l3 216c0 0-1 21-18 30z" />
<glyph glyph-name="youku" horiz-adv-x="1000" unicode="&#xed8a;" d="M456 665c-13 0-27-3-38-11-26-18-40-72-57-110-19-42-35-85-53-116-50 56-83 180-143 226-19 15-61 14-80 0-52-39 0-107 20-143 46-79 96-163 134-235-25-66-151-251 18-241 41 27 58 81 80 131 46 102 84 189 131 294 20 44 67 109 57 158-6 28-37 47-69 47z m408-40c-24 0-49-12-60-34-17-20-36-39-56-56-10-12-21-23-33-33-14-15-25-32-44-42v116c-1 64-119 64-119 0v-330c5-23 16-41 41-44h36c24 4 38 19 42 44v72c0 24-5 66 11 41 25-23 59-49 90-77 29-27 58-71 89-77 64-14 92 47 68 92-25 47-97 77-128 119 21 48 135 77 125 161-4 32-33 48-62 48z" />
<glyph glyph-name="youtube" horiz-adv-x="1000" unicode="&#xed8b;" d="M333 594v-135h49v134l29 94c16 52 30 95 31 97 1 3-4 4-25 4h-25l-4-13c-2-7-9-35-17-62s-13-50-14-50-8 27-17 60c-8 33-16 61-17 62-1 2-12 2-26 2l-24-1 30-96 30-96z m271-121c3-5 7-11 11-13 8-4 25-4 35 0 4 2 13 8 19 14l12 10v-25h46v246h-46v-189l-9-9c-10-10-18-14-24-9-3 3-3 18-3 105v102h-47l1-111c0-104 1-113 5-121z m-152 3c8-9 15-14 25-17 16-6 24-6 41-1 17 5 35 21 41 38 3 11 4 22 4 85 0 79-1 87-16 105-22 27-74 27-96 1-16-18-17-26-17-105 0-82 1-88 18-106z m30 179c6 13 27 13 33 0 2-4 3-29 3-75 0-71-1-79-11-83-2-1-6-1-9-1-18 0-19 5-19 85 0 45 1 70 3 74z m99-441c-6 2-9 2-18-3l-11-6v-149l9-5c12-7 16-7 25 0l6 6 1 68c1 76 0 85-12 89z m282-26c-1 44-3 91-4 104-8 71-30 105-77 117-24 6-89 9-229 10-129 2-261-1-312-6-52-6-80-31-93-83-13-58-16-225-5-305 4-22 14-52 22-66 22-33 54-41 173-45 80-3 320-1 378 2 54 3 67 6 86 15 51 25 64 81 61 257z m-540 101h-26v-280h-49v280h-51v46h153v-46h-27z m149-159v-121h-46v25l-11-10c-6-5-14-12-18-14-11-5-32-5-40 2-13 9-14 19-14 135v105h46v-99c0-88 1-101 4-104 6-6 11-4 22 7l11 11v185h46v-122z m167-11c0-78 0-80-6-92-3-6-9-13-14-16-9-6-28-6-39-1-4 2-12 7-18 12l-10 9v-22h-44v326h44v-105l12 10c11 10 25 17 35 17 11 0 24-8 30-18 10-17 11-33 10-120z m163-46c-2-33-12-51-36-62-16-7-43-7-60 2-15 7-25 19-31 35-4 9-5 22-6 75-1 82 2 98 23 117 13 11 25 15 43 15 21 1 36-5 49-20 15-17 19-31 19-76v-36h-88v-28c0-23 1-31 4-38 6-11 17-14 27-8 8 5 11 13 11 30v15h47l-2-21z m-45 87v18c0 23-5 34-14 36-20 5-28-6-28-36v-18h42z" />
<glyph glyph-name="zencart" horiz-adv-x="1000" unicode="&#xed8c;" d="M153 3h694v694h-694v-694z m260 326s-22-25-25-79c0 0-2-37 11-121 0 0 9-52 12-60 0 0 11-39-20-31 0 0-30 5-55 40 0 0-56 70-40 178 0 0 3 88 64 139 0 0 50 53 127 44 0 0 44-3 25-34 0 0-18-15-28-22 0 0-55-33-71-54z m327-167s-28-51-101-66c0 0-59-13-125 37 0 0-54 39-62 93 0 0-7 59 29 104 0 0 43 54 51 5 0 0 3-58 9-75 0 0 19-53 87-57 0 0 43-4 82 12 0 0 33 11 45 1 0 0 18-6-15-54z m-176 285s19 23 56 16c16-3 39-18 46-43 0 0 23-64-36-85 0 0-46-15-77 21 0 0-31 38 11 91z m-57 216s24 15 66 3c0 0 88-24 158-122 0 0 83-126 24-218 0 0-13-24-36-32 0 0-20-9-15 31 0 0 4 70-17 108 0 0-22 63-85 98 0 0-55 40-72 50 0 0-31 23-41 37 0 0-24 27 18 45z m-324-306s22 77 101 133c0 0 70 47 159 51 0 0 48 4 86-16 0 0 43-17 13-37 0 0-51-18-79-23 0 0-60-14-115-53 0 0-44-35-64-65 0 0-32-50-45-57 0 0-23-29-52-6 0 0-24 23-4 73z m16 431l-7-50 404 1-397 49z m689-131l1-403 49 396-50 7z m-81-745l7 50-398 0 391-50z m-744 136l49-6v402l-49-396z" />
<glyph glyph-name="addons" horiz-adv-x="1000" unicode="&#xeea0;" d="M882 614c-24 44-55 82-93 115-10 10-27 8-36-4-14-19-29-38-43-57-9-12-7-28 3-38 134-126 126-327 12-444-49-51-112-81-177-91v298c1 0 2 2 3 2 13 4 26 9 38 17 28 19 44 46 44 81 0 37 0 74 0 112v5h-37v6c0 32 0 64 0 96 0 5-2 10-4 13-5 9-18 12-28 9-11-4-16-11-16-22v-101h-95v4c0 32 0 65 1 98 0 9-5 16-13 20-16 7-36-3-35-22 1-32 0-64 0-95v-6h-39v-121c0-15 4-30 12-44 16-27 41-43 71-50 0 0 1-1 1-1v-300c-58 9-114 34-160 76-67 62-103 139-103 229-1 92 33 169 99 230 10 10 12 27 3 39-14 19-29 38-43 57-9 11-26 13-37 4-129-114-184-302-122-474 67-184 257-316 473-286 189 26 350 180 374 384 10 92-8 179-53 261z" />
<glyph glyph-name="address-book" horiz-adv-x="1000" unicode="&#xeea1;" d="M744 785c-8 2-16 2-24 2-157 0-314 0-471 0h-14v-874h489c3 0 6 0 10 0 28 2 45 19 46 48 0 4 0 9 0 14v750c0 6 0 12 0 18-2 23-14 37-36 42z m-375-562v7c0 1 0 1 0 1 2 19 13 29 31 35 17 6 34 13 50 20 16 6 24 18 26 34 1 7-3 13-7 18-23 30-26 63-18 97 7 28 31 44 59 43 28-2 50-20 56-47 5-24 3-48-6-71-3-7-7-13-11-19-13-16-11-38 7-50 8-5 18-9 28-13 12-5 24-9 36-13 20-8 27-19 27-42h-278z m-186 565c-45 0-62-17-62-62v-2c0-249 0-498 0-747 0-8 1-17 2-25 4-20 15-33 35-36 16-3 32-3 50-4v875h-25v1z m696-160v-121c0-16-13-29-29-29h-41v180h41c16 0 29-14 29-30z m0-232v-121c0-16-13-29-29-29h-41v179h41c16 0 29-13 29-29z m0-232v-121c0-17-13-30-29-30h-41v180h41c16 0 29-13 29-29z" />
<glyph glyph-name="adjust" horiz-adv-x="1000" unicode="&#xeea2;" d="M500 788c-242 0-437-196-437-438 0-242 195-438 437-438 242 0 438 196 438 438 0 242-196 438-438 438z m0-823c-213 0-385 172-385 385 0 213 172 385 385 385s385-172 385-385c0-213-172-385-385-385z m0 721v-672c185 0 336 151 336 336 0 185-151 336-336 336z" />
<glyph glyph-name="alarm" horiz-adv-x="1000" unicode="&#xeea3;" d="M893 94c0 2-3 5-5 7-19 15-39 29-57 46-38 38-63 83-67 139-2 38-2 76-4 114-2 46-8 92-21 136-27 89-78 152-168 174-2 1-5 6-5 9-1 34-24 62-56 68-31 5-61-15-71-47-2-4-3-9-3-14-1-8-4-15-5-16-1 0-2 0-3-1-63-16-110-53-141-113-20-38-32-78-38-121-9-55-11-110-11-166 1-46-12-88-38-126-23-33-52-60-85-81-3-2-7-5-7-8-1-22-1-43-1-65h787c0 22 0 43-1 65z m-268-107h-249c-8 0-11-6-8-13l22-48c3-7 12-14 20-14h182c7 0 16 6 20 14l21 48c3 7-1 13-8 13z" />
<glyph glyph-name="anchor" horiz-adv-x="1000" unicode="&#xeea4;" d="M888 98l-40 174c-4 20-29 28-45 14l-130-121c-16-14-10-40 10-46l34-11c-20-23-44-43-71-59-30-18-63-30-98-36v371h77c10-6 21-9 32-9 32 0 58 25 58 57s-26 58-58 58c-11 0-22-3-32-9h-77v40c52 19 89 70 89 129 0 76-62 137-137 137s-138-61-138-137c0-59 37-110 89-129v-40h-77c-9 6-20 9-32 9-32 0-58-26-58-58s26-57 58-57c12 0 23 3 32 9h77v-371c-34 6-68 18-98 36-27 16-51 36-71 59l34 11c20 6 26 32 11 46l-131 121c-15 14-40 6-45-14l-39-174c-5-20 14-38 34-32l38 12c31-45 72-84 120-112 59-35 127-53 196-53s136 18 195 53c48 28 89 67 121 112l37-12c20-6 39 12 35 32z m-351 534c-7-14-21-23-37-23-17 0-31 9-37 23-3 6-4 12-4 18 0 23 18 41 41 41 23 0 41-18 41-41 0-6-2-12-4-18z" />
<glyph glyph-name="archive" horiz-adv-x="1000" unicode="&#xeea5;" d="M129 460c-4 0-7 0-10 1v-447c0-29 24-53 52-53h658c29 0 52 24 52 53v447c-3-1-6-1-9-1l-743 0z m519-198h-296c-15 0-26 12-26 26v70c0 14 11 26 26 26h296c15 0 26-12 26-26v-70h1c0-14-12-26-27-26z m290 417c0 33-27 60-60 60h-755c-34 0-60-27-60-60v-121h56v-45h762v45h57l0 121z" />
<glyph glyph-name="at" horiz-adv-x="1000" unicode="&#xeea6;" d="M936 490c-5 55-20 103-42 142-23 39-52 70-87 94s-75 41-120 50-92 11-140 6c-92-9-169-31-233-68-64-36-115-80-154-131-38-52-65-108-80-168-16-61-21-120-15-177 6-61 20-113 44-155 24-43 54-77 90-103 36-27 77-45 123-54 46-10 93-13 143-8 21 2 41 5 62 8 21 4 40 8 59 13 18 4 35 10 51 16 15 7 29 13 40 20-6 15-12 29-18 44-7 15-14 29-21 42-22-11-47-20-75-27-28-7-59-12-92-15-36-4-71-2-103 5s-62 19-88 37c-26 19-47 44-64 76s-28 70-33 116c-5 51-1 101 13 150 13 49 34 93 65 133 30 40 69 72 116 99 47 26 102 42 165 48 82 8 147-5 196-40 49-35 77-90 84-164 3-26 2-53-2-81-4-28-11-54-21-78-11-23-24-43-42-59-17-16-38-25-61-28-15-1-26 0-33 5l30 333c-25 7-52 11-80 12-29 2-57 1-86-1-38-4-73-15-105-33-31-18-59-41-81-70-23-29-39-62-50-100-11-38-15-78-11-122 3-28 9-51 19-70 10-20 23-35 37-47 15-12 32-20 51-24 18-5 38-6 58-4 33 3 59 9 79 19 21 9 40 20 59 31 27-22 64-31 111-26 41 4 77 18 109 40 32 23 58 51 79 84 21 33 36 70 46 110 9 40 12 80 8 120z m-390-257c-11-5-21-8-30-11-9-3-20-5-33-6-21-2-38 3-52 14-14 12-22 32-25 61-2 23-1 45 3 66s11 41 22 58c10 17 22 31 38 42 15 11 34 18 55 20 7 1 14 1 20 1 6 0 13-1 20-2l-18-243z" />
<glyph glyph-name="attachment" horiz-adv-x="1000" unicode="&#xeea7;" d="M739 713v-372c0-62-49-112-111-112-33 0-63 15-84 39-8 9-14 20-19 32-5 12-8 27-8 41v335c0 7 1 15 3 21 9 31 37 53 71 53 38 0 70-29 74-67 0-2 0-5 0-7v-335c0-21-16-37-37-37s-37 16-37 37v298h-37v-298c0-15 5-30 13-41 11-17 29-29 50-32 4-1 7-1 11-1s8 0 12 1c3 0 7 1 11 2 30 10 52 38 52 71v335c-1 62-50 112-112 112-54 0-100-39-109-91h-227c-17 0-32-14-32-32v-721c0-17 15-32 32-32h490c17 0 31 15 31 32v769h-37z m13-738c0-16-12-29-28-29h-448c-16 0-29 13-29 29v659c0 17 13 30 29 30h204v-166h-130v-32h130v-67h-130v-32h130v-45c1-8 2-15 5-22h-135v-32h148c18-32 47-56 81-68h-229v-32h300v26c43 6 80 31 102 65v-284z m-402 126h300v-32h-300l0 32z" />
<glyph glyph-name="audio" horiz-adv-x="1000" unicode="&#xeea8;" d="M812 668c-6 6-16 6-22 0l-25-25c-6-6-6-16 0-22 69-76 105-166 106-270 0-106-37-196-106-272-6-7-6-16 0-22l25-25c6-6 16-6 22 0 169 176 166 464 0 636z m-349-19c-15-14-30-28-44-41-41-39-82-78-123-117-6-5-12-8-20-8-34 0-69 0-103 0-18 0-36 0-54 0h-1v-265c2-1 4-1 6-1h49c34 0 68 0 101 0 7 0 12-2 17-6 55-52 111-103 166-155 3-2 6-5 9-7 4-4 8-1 8 8v587c0 8-5 10-11 5z m254-75c-6 6-15 5-21 0l-25-25c-6-6-6-16 0-22 43-50 66-109 66-177 0-68-23-128-67-178-5-6-5-16 1-22l25-24c5-6 15-6 21 0 124 132 109 337 0 448z m-93-95c-6 6-16 6-21 0l-26-25c-6-6-6-16-1-22 18-23 28-51 28-82 0-32-10-59-28-82-5-7-5-16 1-22l25-26c6-6 16-6 21 0 65 73 63 189 1 259z m-561 4v-265c1-1 2-1 3-1h30v266c-11 0-22 0-33 0l0 0z" />
<glyph glyph-name="automation" horiz-adv-x="1000" unicode="&#xeea9;" d="M323 365c1-1 2-2 2-5-3-12-4-24-3-36 0-3-1-5-4-6-12-5-23-10-35-15-7-3-14-6-21-9l-2-1c-1 0-1-4 0-8 6-18 11-35 17-53 2-4 6-7 11-6 5 2 11 3 16 4 13 3 26 5 38 8 4 1 6 0 9-3 7-9 15-18 23-27 2-2 2-3 1-6-7-19-15-38-22-57-1 0-1-1-1-2 0-1 3-3 6-5 17-9 33-17 49-26 4-2 9 0 12 3 1 3 3 6 5 9 9 13 18 27 26 41 2 2 3 2 5 2 13-1 25-2 37-3 3 0 5-1 6-4 5-11 10-23 14-34 3-6 6-12 8-18 2-4 7-7 11-5 17 5 34 11 52 17 4 1 7 6 6 10l-4 20c-3 12-5 25-8 37-1 2 0 3 2 5 10 8 19 16 28 25 2 1 4 2 6 1 20-8 39-15 59-23l1 0c1 0 3 3 5 7 3 5 6 10 8 15 6 12 12 25 19 38 1 2 1 4-2 5-17 11-35 22-52 33-2 1-3 2-2 5 3 12 4 25 3 38 0 2 0 3 2 4 14 6 27 12 41 18l12 6c5 2 7 7 5 11-5 17-11 34-17 52-1 4-6 7-10 6-3-1-6-2-9-2l-46-11c-3-1-5-1-7 2-6 11-15 20-24 28-2 2-2 3-1 5l22 60c1 2 1 3-1 4-20 10-39 20-58 30-1 0-1 0-1 0-1 1-2-1-4-2l-2-4-31-49c-2-3-3-3-6-3-12 3-24 4-37 3-2 0-4 1-5 3-6 14-12 28-18 41-2 4-4 8-6 12-1 4-6 6-11 5-17-6-34-11-51-17-5-1-7-6-6-10 0-3 1-6 2-9 3-15 7-31 11-46 1-4 0-6-3-8-10-6-19-14-27-23-2-2-4-3-7-1-19 7-38 15-58 22 0 1-1 1-2 1-1 0-2 0-2-1l-1-2c-10-19-19-38-29-56-1-3-1-4 2-5 18-12 36-23 54-35z m225-12c13-39-7-75-43-87-31-11-67 7-80 37-2 4-4 11-5 15-6 29 14 65 42 74 30 9 73-1 86-39z m346 252c14 4 27 9 40 13l3 1c1 0 1 4 0 9-2 11-5 22-7 34-1 4-5 8-9 7l-7-1c-11-1-22-2-33-4-3 0-4 2-5 3-5 8-10 15-15 22-1 2-1 4 0 6 6 13 13 26 19 38 2 3 2 5-1 6-12 8-24 16-37 23 0 1-1 1-1 1-1 1-3 1-3 0l-2-2c-9-11-17-23-26-34-2-2-3-2-5-2-9 2-18 4-26 5-3 1-4 1-5 4-4 14-8 28-12 43 0 0 0 0-1 1 0 0-4 0-8-1l-36-7c-4-1-7-6-7-10 1-6 2-11 2-17 1-7 2-14 2-22 0-1 0-3-2-4l-21-16c-2-1-3-1-5 0-13 6-26 13-39 20-3 1-4 1-5-2-8-12-16-25-24-37-1-2-1-4 1-5l33-27c2-2 3-3 2-6-1-8-3-16-3-24-1-3-2-5-5-6-14-4-28-8-43-12 0 0-1 0-1-1-1 0 0-4 0-8 3-12 5-24 8-36 1-4 5-7 8-7l7 1c12 1 23 2 34 4 2 0 4-1 5-3 4-7 9-14 14-20 2-3 2-4 1-6-7-13-13-26-20-39 0 0-1-1-1-2-1 0 1-3 3-4l5-3c11-7 21-13 32-20 2-2 3-1 5 1l28 34c2 2 3 2 5 2 8-2 17-3 25-5 2 0 3-1 4-3 5-14 9-28 14-42l0-2c1-1 5-1 9 0l34 8c5 1 8 5 7 10l-1 16c-1 8-2 15-3 22 0 2 0 3 2 5 8 5 15 10 23 15 2 1 3 1 5 0l36-19c1-1 2-1 3-2 1-1 4 2 7 5 6 11 13 21 20 31 2 4 3 8 3 8-1 1-1 1-2 2-12 9-23 18-35 27-2 2-2 3-2 5 2 9 4 17 6 25 0 2 1 3 3 4z m-109-42c-27-9-54 9-61 31-8 28 6 56 34 64 23 6 51-10 58-33 10-30-9-55-31-62z m-222-539c-32-10-65-15-98-15-137 0-257 87-300 217-39 122-3 254 94 338l15 12c4 3 4 9 2 12l-44 56c-2 4-7 4-11 1l-17-14c-125-107-172-276-121-432 54-166 208-277 382-277 43 0 85 6 125 20 38 12 74 30 106 52l18 14c4 2 5 7 2 11l-43 55c-3 4-8 5-12 2l-16-11c-25-17-53-31-82-41z" />
<glyph glyph-name="badge" horiz-adv-x="1000" unicode="&#xeeaa;" d="M838 44l-115 256-7-4c-3-2-5-4-6-6l-29-46c-9-14-25-23-42-24l-54-2c-3 0-5-1-8-2l-7-4-54-120 74-166c8-16 30-18 41-3l56 81c7 9 15 14 21 10l108-3c17-1 29 17 22 33z m-309 146c-7-3-16-5-24-5-8 0-16 2-24 6l-13 7-35 18c-2 1-5 2-8 2l-54 2c-17 1-32 10-41 24l-30 46c-1 2-3 4-5 6l-15 9-118-261c-7-16 4-34 21-34h1l109 4c8 0 15-4 19-10l57-82c5-6 12-10 19-10 9 0 18 5 22 14l90 200 29 64z m-284 251c4-6 5-13 6-20l2-54c0-8 4-15 11-19l3-2 24-15 19-12c6-3 11-8 14-14l29-46c4-6 11-10 19-11l54-2c7-1 14-2 20-5l3-2 45-23c4-2 7-3 11-3 4 0 7 1 11 3l48 25c1 0 3 1 4 1 5 2 10 4 16 4l1 0 53 2c8 1 15 5 19 11l29 46c4 6 9 11 14 14l46 30c6 4 10 11 11 18l2 55c1 6 2 13 5 19l25 48c4 7 4 15 0 22l-24 48c-4 6-5 13-6 20l-2 54c0 8-4 15-11 19l-46 29c-6 4-11 9-14 14l-29 46c-4 7-11 11-19 11l-54 2c-7 1-14 3-20 6l-48 25c-4 2-7 2-11 2-4 0-7 0-11-2l-48-25c-6-3-13-5-20-5l-54-3c-8 0-15-4-19-11l-29-45c-4-6-9-11-14-15l-46-29c-7-4-11-11-11-19l-3-54c0-7-2-14-5-20l-25-48c-3-7-3-15 0-22l25-48z" />
<glyph glyph-name="bag-alt" horiz-adv-x="1000" unicode="&#xeeab;" d="M995 570c-5 67-53 117-120 118-39 0-78 0-117 0-37-1-37-1-37 35 0 75-49 124-125 125-32 0-65 0-97 0-35 0-70 0-105 0-54-1-99-36-114-88-5-19-4-37-3-55 0-15-5-18-19-18-43 1-85 0-128 0-78 0-121-49-127-128-4-55-4-105-1-163 3-48 15-81 51-107 3-2 6-4 8-7 105-82 227-118 358-131 16-1 21 3 21 19 3 37 27 64 57 65 30 1 53-22 60-60 1-3 2-6 2-9-1-14 4-16 18-16 51 5 102 14 152 28 94 27 180 68 249 140 9 10 16 19 18 34 8 74 3 147-1 218z m-650 113c0 62 69 113 154 113 84 0 153-51 153-113h-307z m155-472c-24 1-45-29-44-63 0-32 20-60 43-60 24 0 43 27 43 61 0 34-19 61-42 62z m496 86l-1 0-75-68c-61-41-163-90-325-114 0 0-22 2-37-7-15-10-16-39-57-43v0h-2v0c-42 4-42 33-58 43-15 9-36 7-36 7-163 24-265 73-325 114l-76 68 0 0v0l0 0 0-49v-249c-1-12 0-22 1-31 0-3 1-6 1-9 16-103 106-102 106-102s7 0 19-1c59-4 214-5 368-4l0 0 1 0v0l0 0 0 0v0l0 0 0 0c155-1 309 0 369 4 12 1 18 1 18 1s91-1 106 102c1 3 1 6 1 9 1 9 2 19 2 31v249l0 49 0 0v0z m-496-445l0 0 0 0 0 0z m0 0l0 0-1 0 1 0z" />
<glyph glyph-name="bag" horiz-adv-x="1000" unicode="&#xeeac;" d="M882 586c0 30-24 55-54 55h-65c-1 4-4 8-6 13-15 27-36 51-62 71-53 40-122 63-195 63-73 0-143-23-195-63-26-21-47-45-62-72-3-4-5-8-7-12h-64c-30 0-54-25-54-56v-94h764l0 95z m-560 55c7 9 16 17 26 25 40 31 94 48 152 48 58 0 112-18 152-48 10-8 18-16 26-25h-356z m578-554h-800l18 383h764l18-383z m3-67h-807l3 51h802l2-51z m3-49c1-32-23-59-54-59h-704c-31 0-56 27-54 59l2 32h808l2-32z" />
<glyph glyph-name="ban" horiz-adv-x="1000" unicode="&#xeead;" d="M901 520c-23 54-54 101-92 140-39 39-86 70-140 93-54 23-110 35-169 35s-116-12-170-35c-54-23-100-54-139-93-38-39-69-86-92-140-24-54-35-110-35-170s11-116 35-170 54-101 92-140c39-39 85-70 139-93 54-23 111-35 170-35s115 12 169 35c54 23 101 54 140 93 38 39 69 86 92 140 24 54 35 111 35 170 0 60-12 116-35 170z m-659-339c-34 51-51 108-51 169 0 56 14 108 42 156s65 85 112 113c47 28 99 42 155 42 62 0 119-18 170-52l-428-428z m542 49c-16-39-38-72-65-99-28-28-61-50-99-67-38-16-78-24-120-24-61 0-117 17-169 50l429 428c32-51 49-107 49-168 0-42-8-82-25-120z" />
<glyph glyph-name="bar-code" horiz-adv-x="1000" unicode="&#xeeae;" d="M63 635h98v-570h-98v570z m643 0h99v-570h-99v570z m-483 0h49v-570h-49v570z m307 0h50v-570h-50v570z m87 0h49v-570h-49v570z m209 0h50v-570h-50v570z m87 0h25v-570h-25v570z m-577 0h148v-570h-148v570z" />
<glyph glyph-name="bars" horiz-adv-x="1000" unicode="&#xeeaf;" d="M104-57v-14c0-9 7-16 16-16h760c9 0 17 7 17 16v14c0 10-8 17-17 17h-35s-9 7-9 16v795c0 9-7 17-16 17h-176c-9 0-17-8-17-17v-795c0-9-6-16-14-16s-13 7-13 16v531c0 9-8 16-17 16h-175c-9 0-17-7-17-16v-531c0-9-6-16-14-16s-14 7-14 16v400c0 9-7 17-16 17h-176c-9 0-17-8-17-17v-400c0-9-1-16-3-16h-31c-9 0-16-7-16-17z m564 821h127c10 0 17-7 17-17v-89c0-9-7-17-17-17h-127c-9 0-17 8-17 17v90c0 9 8 16 17 16z m-237-265h128c10 0 17-7 17-16v-268c0-9-7-16-17-16h-128c-9 0-16 7-16 16v268c0 9 7 16 16 16z m-252-231v84c0 9 7 17 16 17h128c9 0 16-8 16-17v-84c0-9-7-17-16-17h-128c-9 0-16 8-16 17z" />
<glyph glyph-name="basket" horiz-adv-x="1000" unicode="&#xeeb0;" d="M796 540l62 75c5 6 4 15-2 20l-47 39c-6 5-15 4-20-2l-109-132c-5-5-15-10-23-10h-314c-8 0-18 4-23 10l-109 132c-5 6-14 7-20 2l-47-39c-6-5-7-14-2-20l62-75c5-5 3-10-5-10h-122c-8 0-14-7-14-14v-100c0-8 6-14 14-14h63c7 0 15-6 16-14l54-352c1-7 8-14 16-14h548c8 0 15 7 17 14l53 352c2 8 9 14 17 14h63c7 0 14 6 14 14v100c0 7-7 14-14 14h-123c-7 0-10 5-5 10z m-451-432h-32c-8 0-15 6-16 14l-28 234c-1 8 4 14 12 14h65c7 0 14-6 14-14v-234c-1-8-7-14-15-14z m194 0h-65c-8 0-14 6-14 14v234c0 8 7 14 14 14h65c8 0 14-6 14-14v-234c0-8-6-14-14-14z m164 0h-32c-8 0-14 6-14 14v234c0 8 6 14 14 14h64c8 0 14-6 13-14l-29-234c-1-8-8-14-16-14z" />
<glyph glyph-name="battery-empty" horiz-adv-x="1000" unicode="&#xeeb1;" d="M926 423h-50c-6 0-11 5-11 11v124c0 6-5 11-11 11h-780c-6 0-11-5-11-11v-415c0-6 5-11 11-11h780c7 0 12 5 12 11v123c0 6 5 12 11 12h49c6 0 11 5 11 11v123c1 6-5 11-11 11z m-135-206c0-7-5-12-11-12h-634c-6 0-11 5-11 12v267c0 6 5 11 11 11h634c6 0 11-5 11-11v-267z" />
<glyph glyph-name="battery-full" horiz-adv-x="1000" unicode="&#xeeb2;" d="M926 423h-50c-6 0-11 5-11 11v124c0 6-5 11-11 11h-780c-6 0-11-5-11-11v-415c0-6 5-11 11-11h780c7 0 12 5 12 11v123c0 6 5 12 11 12h49c6 0 11 5 11 11v123c1 6-5 11-11 11z m-135-206c0-7-5-12-11-12h-634c-6 0-11 5-11 12v267c0 6 5 11 11 11h634c6 0 11-5 11-11v-267z m-185 30c-34 69-69 138-103 207-3 6-7 6-13 6l-162 0c-1 0-3 0-5 0-3-1-5-2-4-3 0-1 1-2 1-2 35-70 69-139 104-209 3-5 7-6 12-6l163 0c1 0 3 0 5 1 2 0 4 1 3 3 0 1-1 2-1 3z m-323 207c-1 3-7 6-10 6-32 0-63 0-94 0-1 0-2 0-4 0-2-1-3-6-3-12v-196c0-6 5-11 11-11h195c6 0 10 1 10 3 0 1-1 2-1 3-35 69-69 138-104 207z m460 5h-195c-6 0-10-1-10-2 0-1 1-2 1-3 35-69 69-138 104-207 2-3 7-6 11-6 30-1 61-1 92-1 2 0 3 1 4 1 3 0 5 5 5 11v196c0 6-5 11-12 11z" />
<glyph glyph-name="battery-half" horiz-adv-x="1000" unicode="&#xeeb3;" d="M926 423h-50c-6 0-11 5-11 11v124c0 6-5 11-11 11h-780c-6 0-11-5-11-11v-415c0-6 5-11 11-11h780c7 0 12 5 12 11v123c0 6 5 12 11 12h49c6 0 11 5 11 11v123c1 6-5 11-11 11z m-135-206c0-7-5-12-11-12h-634c-6 0-11 5-11 12v267c0 6 5 11 11 11h634c6 0 11-5 11-11v-267z m-185 30c-34 69-69 138-103 207-3 6-7 6-13 6l-162 0c-1 0-3 0-5 0-3-1-5-2-4-3 0-1 1-2 1-2 35-70 69-139 104-209 3-5 7-6 12-6l163 0c1 0 3 0 5 1 2 0 4 1 3 3 0 1-1 2-1 3z m-323 207c-1 3-7 6-10 6-32 0-63 0-94 0-1 0-2 0-4 0-2-1-3-6-3-12v-196c0-6 5-11 11-11h195c6 0 10 1 10 3 0 1-1 2-1 3-35 69-69 138-104 207z" />
<glyph glyph-name="battery-low" horiz-adv-x="1000" unicode="&#xeeb4;" d="M926 423h-50c-6 0-11 5-11 11v124c0 6-5 11-11 11h-780c-6 0-11-5-11-11v-415c0-6 5-11 11-11h780c7 0 12 5 12 11v123c0 6 5 12 11 12h49c6 0 11 5 11 11v123c1 6-5 11-11 11z m-135-206c0-7-5-12-11-12h-634c-6 0-11 5-11 12v267c0 6 5 11 11 11h634c6 0 11-5 11-11v-267z m-508 237c-1 3-7 6-10 6-32 0-63 0-94 0-1 0-2 0-4 0-2-1-3-6-3-12v-196c0-6 5-11 11-11h195c6 0 10 1 10 3 0 1-1 2-1 3-35 69-69 138-104 207z" />
<glyph glyph-name="beaker" horiz-adv-x="1000" unicode="&#xeeb5;" d="M825-21c0-37-30-67-67-67h-516c-37 0-67 30-67 67 0 4 1 7 2 10l179 469c0 1 0 2 1 2v269h-22c-16 0-29 13-29 29 0 16 13 30 29 30h51c16 0 29-14 29-30v-300c0-1 0-3 0-5 0-3-1-8-3-11l-107-283h388l-111 282c-1 3-2 6-2 10l0 1c-1 1-1 3-1 4v302c0 16 13 30 30 30h51c17 0 30-14 30-30s-13-29-30-29h-22v-270l185-469c1-4 2-7 2-11z m-382 245c0 12 10 22 22 22s22-10 22-22c0-12-9-22-22-22s-22 10-22 22z m15 0c0-4 3-7 7-7 4 0 8 3 8 7 0 4-3 8-8 8-4 0-7-4-7-8z m99 22c0 12 10 22 22 22 12 0 22-10 22-22s-10-22-22-22-22 10-22 22z m15 0c0-4 3-7 7-7s7 3 7 7-3 8-7 8c-4 0-7-4-7-8z m-76 74c0 16 14 30 30 30s31-14 31-30c0-17-14-31-31-31s-30 14-30 31z m14 0c0-9 8-16 16-16 9 0 16 7 16 16s-7 15-16 15c-8 0-16-7-16-15z" />
<glyph glyph-name="beard" horiz-adv-x="1000" unicode="&#xeeb6;" d="M834 650c-13 0-23-17-24-38-5-99-29-291-96-302-50-8-100 138-128 176-29 37-137 60-180-18-43-79-56-139-123-160-47-15-70 71-80 122-4 21-9 55-11 76-3 35-6 71-7 106 0 21-9 37-21 36-11-2-20-20-19-41 2-70 10-140 23-207 21-147 77-379 230-456 18-9 50-22 70-27 12-3 25-5 38-5 28 0 55 8 81 22 159 68 242 328 254 516 8 54 13 104 14 162 1 21-9 38-21 38z m-240-379c-17-10-28-8-35-1-15 14-17 54-36 64-27 14-71 3-71-32 0-37-39-39-49-27-32 38-9 75 15 98 14 15 43 35 64 38 36 5 73-12 73-12 75-43 58-117 39-128z m-283 467h42c14 0 25 11 25 25s-11 25-25 25h-42c-13 0-25-12-25-25 0-14 12-25 25-25z m336 0h42c14 0 25 11 25 25s-11 25-25 25h-42c-13 0-25-12-25-25 0-14 12-25 25-25z" />
<glyph glyph-name="bed" horiz-adv-x="1000" unicode="&#xeeb7;" d="M63 578c0 2 0 4 0 7 2 28 29 46 52 33 15-9 19-25 19-44 0-84 0-168 0-252v-16h802v-228h-72v152h-730v-152h-71v500z m310-73h13c71 0 142 0 212-1 94 0 187 1 281 0 36 0 59-25 59-66v-91h-565v158z m-197-56c0 16 7 28 17 38 12 12 26 17 41 17h109v-157h-167c0 35 0 68 0 102z" />
<glyph glyph-name="bell" horiz-adv-x="1000" unicode="&#xeeb8;" d="M901 330c-6 23-26 40-50 42-24 1-47-12-57-34-9-22-4-48 14-64 3-4 6-7 4-12-13-43-30-84-57-120-31-42-69-74-121-88-10-3-21-4-33-6 1 8 1 13 2 20-107-56-213-56-319 0-2-6-5-12-5-17 0-24-1-48 2-71 4-34 29-69 77-68 60 2 120 1 180 1 31 0 50 13 57 43 4 14 5 29 8 44 4 1 8 1 13 1 4 1 9 1 13 2 61 11 109 44 149 90 40 47 65 101 81 159 2 5 4 8 9 11 27 11 40 40 33 67z m-145 52c0 175-143 310-309 309-170 0-309-137-310-306-1-170 135-311 307-312 174-1 312 138 312 309z m-417-2c0 62 47 110 107 110 60 0 108-48 108-107 1-60-47-109-107-109-59 0-108 48-108 106z m157 3c0 27-22 49-50 48-27 0-50-22-49-49 0-27 22-49 49-49 28-1 50 22 50 50z m162 279c3-2 7-4 11-4 4 0 8 2 11 5l96 98c6 6 5 16-1 22-6 6-15 6-21 0l-96-99c-6-6-6-16 0-22z m-28 10c1 0 2 0 2 0 8 0 15 6 16 13l11 85c1 8-5 16-13 17-9 1-16-4-17-13l-12-84c-1-9 5-16 13-18z m63-14c-8-2-13-11-12-19 2-7 8-12 15-12 2 0 3 1 4 1l85 20c8 2 13 11 11 19-2 8-10 13-19 11l-84-20z m-480 5c3-3 7-5 11-5 4 0 8 2 11 5 6 5 6 15 0 21l-96 99c-5 6-15 6-21 0-6-6-7-15-1-22l96-98z m48 9c0 0 1 0 2 0 8 2 14 9 13 18l-12 84c-1 9-8 15-17 13-8-1-14-9-13-17l11-84c1-8 8-14 16-14z m-64-45c6 0 13 5 15 12 1 8-4 17-12 19l-84 20c-9 2-17-3-19-11-2-8 3-17 11-19l85-20c1 0 2-1 4-1z" />
<glyph glyph-name="beverage" horiz-adv-x="1000" unicode="&#xeeb9;" d="M478 618c-7 39-15 76-23 106-11 42-35 57-53 61-58 15-135-53-159-77-4-4-4-10 0-14l15-14c3-4 10-4 14 0 30 29 88 74 120 66 4-1 17-4 25-33 7-27 14-60 20-95 1-6-2-10-8-10h-16c-5 0-10-4-9-10l41-664c0-5 5-10 10-10h2c6 0 10-2 10-6 0-3 5-6 10-6h210c5 0 10 3 10 6 0 4 4 6 10 6h2c5 0 10 5 10 10l41 664c0 6-4 10-10 10h-260c-6 0-11 4-12 10z m-40-174l-8 129c0 6 3 10 6 10s8-4 9-10c7-44 14-89 19-129 1-5-3-10-8-10h-8c-5 0-10 5-10 10z m26-148c-5 10-1 22 9 27l60 29c10 5 22 1 27-9l29-59c5-10 1-22-9-27l-59-30c-10-5-22-1-27 10l-30 59z m123 13l-20 40c-1 3-4 6-6 8-4 3-8 9-8 15l2 22c1 12 11 20 23 19 0 0 69-5 69-5 12-1 21-11 20-23l-6-69c-1-12-11-21-22-20-1 0-24 2-38 3-5 1-12 5-14 10z m3-173h-24l-42 0c-11 0-20 9-20 20l-1 51c0 5 2 9 4 9 2 0 3 0 4 0 4 0 8 1 12 2l41 21c5 2 13 4 17 4h9c11 0 20-9 20-20l1-66c0-12-9-21-21-21z m-30-167c-9-6-22-4-28 5l-38 55c-6 9-4 22 5 28l47 32c4 3 8 3 9 0l0-6c0-17 14-31 31-31h12c5 0 12-4 16-8l6-9c6-9 4-22-5-29l-55-37z m40 94h-14c-2 0-3 1-4 1-2 0-3 0-4 1-1 0-2 1-3 2-1 0-2 1-3 2-1 1-1 1-2 2-1 1-2 3-3 4-1 3-1 6-1 8l-1 15v17c0 5 5 10 10 10h15c8 0 16 3 22 9 6 6 10 14 9 23v6s5 7 10 7l21 0c11 0 20-9 20-20l1-66c0-11-9-21-21-21l-52 0z m-95 381c-5 39-12 84-19 130-1 5 3 9 8 9h230c5 0 10-4 9-10l-8-129c0-5-5-10-10-10h-199c-5 0-10 5-11 10z" />
<glyph glyph-name="bill" horiz-adv-x="1000" unicode="&#xeeba;" d="M809 578h-628c-6-33-30-61-62-72-2-1-4-2-6-2v-110c17 26 46 44 80 44 52 0 95-43 95-95 0-52-43-94-95-94-34 0-63 17-80 44v-110c30-9 54-31 64-61h293c-87 18-153 111-154 224 1 124 83 226 183 226 101 0 183-102 183-226 0-113-67-206-154-224h285c9 29 32 51 62 60 4 1 8 2 12 3v317c-39 6-71 36-78 76z m78-235c0-52-43-94-95-94-52 0-95 42-95 94 0 52 43 95 95 95 52 0 95-43 95-95z m-148 0c0-29 24-53 53-53 29 0 53 24 53 53 0 30-24 53-53 53-29 0-53-23-53-53z m-493 0c0 30-24 53-53 53s-53-24-53-53c0-29 24-53 53-53 29 0 53 24 53 53z m-183 285v-556h875v556h-875z m866-486l-18 2-4 0 0 0-2 0h-3c-10 0-19-2-27-7-9-6-16-13-21-23l0-1-1-1c-1-4-3-9-3-13l-1-4-2-14h-704l-2 14 0 2 0 2c-3 15-11 29-25 37-7 5-16 8-25 8h-4l-16 2v395l16 1 4 0c28 2 50 25 50 53v2c0 0 0 0 0 1v4l-1 17h710l-1-17v-4l0-2c0-27 20-50 45-53 3-1 6-1 8-1 1 0 3 0 4 0l5 1 18 1 0-402z m-331 71c27 35 42 82 42 133s-15 97-42 132c-27 34-62 53-99 53-37 0-71-19-98-53-28-35-43-82-43-132 0-51 15-98 43-133 27-33 61-52 98-52 37 0 72 19 99 52z m-46 62c-8-10-21-17-36-20v-32c-4-1-8-1-12-1-4 0-8 0-12 1v29h-2c-6 0-11 0-16 0-4 1-9 1-13 2-4 1-8 2-12 3s-9 3-13 5c0 5 1 10 3 16 1 5 3 10 5 16 7-3 14-5 21-6 7-2 14-2 21-2 11 0 20 2 26 6 6 3 9 10 9 18 0 5 0 8-2 11s-4 5-7 7c-2 1-5 3-8 4-3 1-7 3-10 4l-14 6c-6 3-11 5-16 8-5 3-9 6-12 10-4 4-7 9-8 14-2 5-3 11-3 19 0 16 4 28 13 38 9 9 22 15 38 17v28c4 1 8 2 12 2s7-1 11-2v-27c8-1 15-2 21-4 7-1 14-3 21-6-1-10-4-20-8-30l-9 3c-2 1-6 2-8 3-4 1-7 1-11 1-4 1-9 1-14 1-3 0-6 0-9-1s-6-1-8-2c-3-2-5-4-7-6-1-3-2-6-2-10 0-4 1-7 2-10 1-2 3-4 5-6 2-2 5-3 7-4 3-2 6-3 8-4l16-7c7-2 13-5 19-8 5-3 10-6 14-10 4-4 7-9 9-15 2-6 3-13 3-22 0-15-4-27-12-37z" />
<glyph glyph-name="bin" horiz-adv-x="1000" unicode="&#xeebb;" d="M251-45c1-24 20-43 44-43h411c23 0 43 19 44 43l29 620h-558l30-620z m342 466c0 9 8 17 18 17h29c10 0 18-8 18-17v-355c0-9-9-17-18-17h-29c-10 0-18 8-18 17v355z m-125 0c0 9 8 17 18 17h29c9 0 17-8 17-17v-355c0-9-8-17-17-17h-29c-10 0-18 8-18 17v355z m-125 0c0 9 8 17 18 17h28c10 0 18-8 18-17v-355c0-9-8-17-18-17h-28c-10 0-18 8-18 17v355z m456 321h-190v36c0 5-4 10-9 10h-199c-5 0-10-5-10-10v-36h-189c-15 0-28-12-28-27v-87h652v87c0 15-12 27-27 27z" />
<glyph glyph-name="binary" horiz-adv-x="1000" unicode="&#xeebc;" d="M305 683c-1 6-3 10-6 14-2 4-5 7-9 9-4 2-9 3-14 3-7 0-13-2-17-5-5-4-8-9-11-16-2-7-3-17-3-28 0-18 3-31 9-39 6-7 13-11 22-11 7 0 13 2 18 6 5 4 8 9 10 16 3 7 4 17 4 28 0 10-1 17-3 23z m-15-55c-4-5-8-8-14-8-5 0-10 3-13 8-4 6-6 16-6 32s2 27 6 33c3 4 8 7 13 7s10-3 14-8c4-6 5-16 5-32s-1-26-5-32z m74-16v97h-7c-2-4-6-8-11-13-5-4-11-8-17-11v-11c4 1 8 3 12 6 5 3 9 5 12 8v-76l11 0z m92 71c-2 6-4 10-6 14-3 4-6 7-10 9-4 2-8 3-14 3-7 0-13-2-17-5-5-4-8-9-11-16-2-7-3-17-3-28 0-18 3-31 9-39 6-7 13-11 22-11 8 0 13 2 18 6 5 4 8 9 10 16 3 7 4 17 4 28 0 10-1 17-2 23z m-16-55c-4-5-8-8-14-8-5 0-10 3-13 8-4 6-6 16-6 32s2 27 6 33c4 4 8 7 13 7s10-3 14-8c4-6 6-16 6-32 0-16-2-26-6-32z m91 55c-2 6-4 10-6 14-3 4-6 7-10 9-4 2-9 3-14 3-7 0-13-2-17-5-5-4-8-9-11-16-2-7-3-17-3-28 0-18 3-31 9-39 6-7 13-11 22-11 7 0 13 2 18 6 4 4 8 9 10 16 2 7 4 17 4 28 0 10-1 17-2 23z m-16-55c-4-5-8-8-14-8s-10 3-13 8c-4 6-6 16-6 32s2 27 6 33c3 4 8 7 13 7 6 0 10-3 14-8 4-6 6-16 6-32s-2-26-6-32z m91 55c-2 6-4 10-6 14-3 4-6 7-10 9-4 2-9 3-14 3-7 0-13-2-17-5-5-4-8-9-11-16-2-7-3-17-3-28 0-18 3-31 9-39 6-7 13-11 22-11 7 0 13 2 18 6 5 4 8 9 10 16 3 7 4 17 4 28 0 10-1 17-2 23z m-16-55c-4-5-8-8-14-8s-10 3-13 8c-4 6-6 16-6 32s2 27 6 33c4 4 8 7 13 7 6 0 11-3 14-8 4-6 6-16 6-32 0-16-2-26-6-32z m-295-177v97h-7c-2-5-6-9-11-13-5-5-11-9-17-12v-11c4 1 8 3 13 6 4 3 8 5 11 8v-75l11 0z m92 70c-2 6-4 10-6 14-3 4-6 7-10 9-4 2-8 3-14 3-7 0-13-1-17-5-5-4-8-9-11-16-2-7-3-16-3-28 0-18 3-31 9-39 6-7 13-10 22-10 8 0 13 2 18 5 5 4 8 10 10 17 3 7 4 16 4 27 0 10-1 17-2 23z m-16-55c-4-5-8-8-14-8-5 0-10 3-13 8-4 6-6 16-6 32 0 16 2 27 6 33 4 4 8 7 13 7s11-3 14-8c4-5 6-16 6-32 0-16-2-26-6-32z m74-15v97h-7c-2-5-6-9-11-13-4-5-10-9-17-12v-11c4 1 8 3 13 6 4 3 8 5 11 8v-75l11 0z m65-1v97h-7c-2-4-6-8-11-13-4-4-10-8-17-11v-11c4 1 8 3 13 6 4 2 8 5 11 8v-76h11z m63-1c7 0 13 2 17 5 5 4 8 10 11 17 2 7 3 16 3 27 0 10-1 17-2 23-2 6-4 10-6 14-3 4-6 7-10 9-4 2-8 4-13 4-8 0-13-2-18-6-5-4-8-9-10-16-3-7-4-16-4-28 0-18 3-31 10-39 5-7 12-10 22-10z m-14 82c4 4 8 7 13 7s11-3 14-8c4-5 6-16 6-32 0-16-2-26-6-32-3-5-8-8-14-8-5 0-10 3-13 8-4 6-6 16-6 32 0 16 2 27 6 33z m102-80v97h-8c-2-5-5-9-10-13-5-5-11-9-18-12v-11c4 1 8 3 13 6 4 3 8 5 11 8v-75l12 0z m-356-92c-1 6-3 10-6 14-2 4-5 7-9 9-4 2-9 4-14 4-7 0-13-2-17-6-5-4-8-9-11-16-2-7-3-16-3-28 0-18 3-31 9-39 6-7 13-10 22-10 7 0 13 2 18 6 5 3 8 9 10 16 3 7 4 16 4 27 0 10-1 17-3 23z m-15-54c-4-6-8-8-14-8-5 0-10 2-13 8-4 5-6 15-6 31s2 27 6 33c3 4 8 7 13 7s10-3 14-8c4-5 5-16 5-32 1-16-1-26-5-31z m74-16v97h-7c-2-5-6-9-11-13-5-5-11-9-17-12v-11c4 1 8 3 12 6 5 3 9 5 12 8v-76l11 1z m92 70c-2 6-4 10-6 14-3 4-6 7-10 9-4 2-8 4-14 4-7 0-13-2-17-6-5-4-8-9-11-16-2-7-3-16-3-28 0-18 3-31 9-39 6-7 13-10 22-10 8 0 13 2 18 6 5 3 8 9 10 16 3 7 4 16 4 27 0 10-1 17-2 23z m-16-54c-4-6-8-8-14-8-5 0-10 2-13 8-4 5-6 15-6 31s2 27 6 33c4 4 8 7 13 7s10-3 14-8c4-5 6-16 6-32 0-16-2-26-6-31z m89 4c3 7 4 16 4 27 0 10-1 17-2 23-2 6-4 10-6 14-3 4-6 7-10 9-4 2-9 4-14 4-7 0-13-2-17-6-5-4-8-9-11-16-2-7-3-16-3-28 0-18 3-31 9-39 6-7 13-10 22-10 7 0 13 2 18 6 4 3 8 9 10 16z m-28-12c-5 0-10 2-14 8-3 5-5 15-5 31s2 27 6 33c3 5 8 7 13 7 6 0 10-3 14-8 4-5 5-16 5-32s-1-26-5-31c-4-6-8-8-14-8z m75-10c7 0 13 2 18 6 5 3 8 9 10 16 3 7 4 16 4 27 0 10-1 17-2 23-2 6-4 10-6 14-3 4-6 7-10 9-4 2-9 3-14 3-7 0-13-1-17-5-5-4-8-9-11-16-2-7-3-16-3-28 0-18 3-31 9-39 6-7 13-10 22-10z m-13 82c3 4 8 7 13 7 6 0 10-3 14-8 4-6 6-16 6-32 0-16-2-26-6-32-4-5-8-8-14-8s-10 3-13 8c-4 6-6 16-6 32s2 27 6 33z m102-80v97h-8c-2-5-6-9-11-13-5-5-10-9-17-12v-11c4 1 8 3 12 6 5 3 9 5 12 8v-76l12 1z m65 0v97h-8c-2-5-6-9-11-13s-10-9-17-12v-11c4 1 8 3 13 6 4 3 8 5 11 8v-76l12 1z m-435-138v96h-7c-2-4-6-8-11-13-5-4-11-8-17-11v-11c4 1 8 3 13 6 4 2 8 5 11 8v-75h11z m90 20c3 7 4 16 4 27 0 10-1 17-2 23-2 6-4 10-6 14-3 4-6 7-10 9-4 2-8 3-14 3-7 0-13-1-17-5-5-4-8-9-11-16-2-7-3-16-3-28 0-18 3-31 10-39 5-7 12-10 21-10 8 0 13 2 18 5 5 4 8 10 10 17z m-28-13c-5 0-10 3-13 8-4 6-6 16-6 32 0 16 2 27 6 33 4 4 8 7 13 7s10-3 14-8c4-5 6-16 6-32 0-16-2-26-6-32-4-5-8-8-14-8z m88-7v96h-7c-2-4-6-8-11-13-4-4-10-8-17-11v-11c4 1 8 3 13 6 4 2 8 5 11 8v-75h11z m65-1v97h-7c-2-4-6-8-11-13-4-4-10-8-17-11v-11c4 1 8 3 13 6 4 2 8 5 11 8v-76h11z m-262-86c-2-7-3-16-3-28 0-18 3-31 9-39 5-7 13-10 22-10 7 0 13 1 18 5 4 4 8 10 10 17 2 7 4 16 4 27 0 10-1 17-3 23-1 5-3 10-6 14-2 4-5 7-9 9-4 2-9 3-14 3-7 0-13-2-17-5-5-4-8-9-11-16z m28 12c6 0 10-3 14-8 4-5 5-16 5-32s-1-26-5-31c-4-6-8-8-14-8-5 0-10 2-14 8-3 5-5 15-5 31s2 27 6 33c3 4 8 7 13 7z m88-88v98h-7c-2-5-6-9-11-13-5-5-11-9-17-12v-11c4 1 8 3 12 6 5 3 9 5 12 8v-76h11z m34 76c-2-7-3-16-3-28 0-18 3-31 9-39 6-7 13-10 22-10 7 0 13 1 18 5 4 4 8 10 10 17 2 7 4 16 4 27 0 10-1 17-3 23-1 5-3 10-6 14-2 4-5 7-9 9-4 2-9 3-14 3-7 0-13-2-17-5-5-4-8-9-11-16z m28 12c6 0 10-3 14-8 4-5 6-16 6-32s-2-26-6-31c-4-6-8-8-14-8-5 0-10 2-13 8-4 5-6 15-6 31s2 27 6 33c3 4 8 7 13 7z m87-119h-294c-18 0-32 14-32 32v65c1 0 3 1 4 2 5 3 9 5 11 8v-75h12v96h-7c-2-4-6-8-11-12-3-3-6-4-9-7v92c5-6 12-9 21-9 6 0 12 2 17 5 5 4 8 10 10 17 3 7 4 16 4 27 0 10-1 17-3 23-1 6-3 11-6 14s-5 7-9 9c-4 2-9 3-14 3-7 0-13-1-17-5-2-1-3-3-4-4v116c2 0 4 1 5 2 5 3 8 6 11 8v-75h12v97h-7c-2-5-6-9-11-13-3-3-7-5-10-7v92c6-6 13-9 21-9 7 0 13 2 18 6 4 3 8 9 10 16 2 7 4 16 4 27 0 10-1 17-3 23-1 6-3 11-6 14-2 4-6 8-9 10-4 2-9 3-14 3-7 0-13-2-18-6l-3-4v139l5 3c5 3 8 5 11 8v-75h12v97h-7c-2-4-6-9-11-13-3-3-7-5-10-7v21c0 18 14 32 32 32h371c18 0 41-11 53-24l12-14c-2-3-4-5-8-8-5-5-11-9-17-12v-11c3 1 8 3 12 6 5 3 8 5 11 8v-75h12v80l13-14 45-52c11-13 20-39 20-56v-32c-2 2-3 4-6 6-4 2-8 3-14 3-6 0-12-2-17-6-5-4-8-9-10-16-3-7-4-16-4-27 0-19 3-32 10-40 5-7 13-10 21-10 8 0 14 2 18 6 1 1 2 2 3 2v-195c11-4 21-10 31-17v351c0 20-10 47-23 62l-50 58c-13 15-26 30-39 45-13 15-39 27-59 27h-412c-20 0-36-16-36-36v-804c0-20 16-35 36-35h374c-20 11-38 26-52 44z m-319 274c3 4 8 7 13 7s10-3 14-8c4-6 6-16 6-32s-2-26-6-32c-4-5-8-8-14-8-5 0-10 3-13 8-4 6-6 16-6 32 0 16 2 27 6 33z m0 300c3 4 8 7 13 7s10-3 14-8c4-6 6-16 6-32s-2-26-6-32c-4-5-8-8-14-8-5 0-10 3-13 8-4 6-6 16-6 32 0 16 2 27 6 33z m542-65c-3-5-8-8-14-8s-10 3-13 8c-4 6-6 16-6 32 0 16 2 27 6 33 4 4 8 7 14 7s10-3 13-8c4-6 6-16 6-32 0-16-2-26-6-32z m64-343l-2 0-6 16 0 1c20 44 18 45 15 49l-26 25c-1 1-2 2-4 2-2 0-6 0-44-18l-2 0-15 6-1 2c-18 44-20 44-24 44h-37c-4 0-6 0-23-44l0-2-16-6-2 0c-25 11-40 17-44 17-2 0-4-1-5-2l-26-26c-3-3-4-4 16-47l1-2-7-15-1-1c-46-17-46-19-46-23v-36c0-5 1-7 44-22 0-2 0-3 0-5 0-11 1-19 4-26-14-32-13-33-10-36l26-25c1-1 3-2 5-2 1 0 6 0 44 17l1 1 16-6 1-2c17-45 19-45 24-45h36c5 0 7 0 23 45l1 2 16 6 1-1c26-11 41-16 45-16 2 0 3 0 5 2l25 25c4 3 5 5-15 48l-1 1 6 15 2 1c45 18 45 19 45 24v36c0 5 0 7-45 23z m-127-99c-32 0-59 26-59 57s27 58 59 58c33 0 59-26 59-58s-26-57-59-57z" />
</font>
</defs>
</svg>
